<svg xmlns="http://www.w3.org/2000/svg" width="186.25" height="90" fill="none"><g transform="translate(30.836 33.589)"><path d="M 0 37.822 L 0 0 L 125.313 0 L 125.313 37.822 Z" fill="transparent"></path><path d="M 77.724 29.554 C 70.451 34.916 59.908 37.777 50.832 37.777 C 38.104 37.777 26.647 33.069 17.979 25.238 C 17.298 24.623 17.908 23.783 18.725 24.263 C 28.08 29.707 39.646 32.982 51.594 32.982 C 59.652 32.982 68.517 31.314 76.667 27.854 C 77.899 27.331 78.928 28.661 77.724 29.554 Z" fill="rgb(110, 98, 158)"></path><path d="M 80.748 26.094 C 79.822 24.906 74.602 25.532 72.259 25.81 C 71.546 25.898 71.437 25.276 72.08 24.83 C 76.237 21.903 83.058 22.748 83.853 23.729 C 84.649 24.715 83.646 31.554 79.74 34.818 C 79.141 35.32 78.569 35.053 78.835 34.388 C 79.713 32.197 81.679 27.287 80.748 26.094 Z" fill="rgb(110, 98, 158)"></path><path d="M 72.423 4.171 L 72.423 1.326 C 72.423 0.896 72.75 0.607 73.142 0.607 L 85.875 0.607 C 86.283 0.607 86.61 0.901 86.61 1.326 L 86.61 3.762 C 86.605 4.171 86.261 4.705 85.651 5.55 L 79.053 14.972 C 81.505 14.912 84.093 15.277 86.316 16.53 C 86.817 16.814 86.953 17.228 86.992 17.636 L 86.992 20.672 C 86.992 21.086 86.534 21.571 86.054 21.32 C 82.137 19.266 76.934 19.042 72.603 21.342 C 72.161 21.582 71.698 21.102 71.698 20.688 L 71.698 17.805 C 71.698 17.342 71.704 16.552 72.167 15.849 L 79.811 4.885 L 73.158 4.885 C 72.75 4.885 72.423 4.596 72.423 4.171 Z" fill="rgb(110, 98, 158)"></path><path d="M 25.977 21.919 L 22.103 21.919 C 21.732 21.892 21.438 21.614 21.411 21.26 L 21.411 1.375 C 21.411 0.978 21.743 0.661 22.157 0.661 L 25.77 0.661 C 26.145 0.678 26.445 0.967 26.472 1.326 L 26.472 3.926 L 26.543 3.926 C 27.486 1.413 29.256 0.242 31.643 0.242 C 34.067 0.242 35.582 1.413 36.672 3.926 C 37.609 1.413 39.739 0.242 42.022 0.242 C 43.645 0.242 45.421 0.912 46.506 2.416 C 47.731 4.089 47.481 6.52 47.481 8.65 L 47.475 21.2 C 47.475 21.598 47.143 21.919 46.729 21.919 L 42.861 21.919 C 42.474 21.892 42.163 21.582 42.163 21.2 L 42.163 10.661 C 42.163 9.822 42.24 7.729 42.054 6.934 C 41.766 5.599 40.899 5.223 39.777 5.223 C 38.84 5.223 37.859 5.849 37.462 6.852 C 37.064 7.855 37.102 9.533 37.102 10.661 L 37.102 21.2 C 37.102 21.598 36.77 21.919 36.356 21.919 L 32.487 21.919 C 32.095 21.892 31.79 21.582 31.79 21.2 L 31.784 10.661 C 31.784 8.443 32.149 5.179 29.398 5.179 C 26.614 5.179 26.723 8.361 26.723 10.661 L 26.723 21.2 C 26.723 21.598 26.391 21.919 25.977 21.919 Z" fill="rgb(110, 98, 158)"></path><path d="M 97.572 0.242 C 103.321 0.242 106.431 5.179 106.431 11.457 C 106.431 17.522 102.993 22.334 97.572 22.334 C 91.928 22.334 88.855 17.396 88.855 11.244 C 88.855 5.054 91.966 0.242 97.572 0.242 Z M 97.604 4.302 C 94.749 4.302 94.571 8.192 94.571 10.617 C 94.571 13.048 94.532 18.236 97.572 18.236 C 100.574 18.236 100.716 14.051 100.716 11.5 C 100.716 9.822 100.644 7.816 100.138 6.225 C 99.702 4.841 98.836 4.302 97.604 4.302 Z" fill="rgb(110, 98, 158)"></path><path d="M 113.884 21.919 L 110.027 21.919 C 109.641 21.892 109.329 21.582 109.329 21.2 L 109.324 1.31 C 109.357 0.945 109.678 0.661 110.071 0.661 L 113.661 0.661 C 113.998 0.678 114.277 0.907 114.353 1.217 L 114.353 4.258 L 114.423 4.258 C 115.508 1.539 117.028 0.242 119.703 0.242 C 121.441 0.242 123.136 0.869 124.226 2.585 C 125.238 4.176 125.238 6.852 125.238 8.776 L 125.238 21.293 C 125.194 21.642 124.873 21.919 124.492 21.919 L 120.607 21.919 C 120.253 21.892 119.959 21.631 119.921 21.293 L 119.921 10.492 C 119.921 8.318 120.172 5.135 117.497 5.135 C 116.554 5.135 115.688 5.768 115.257 6.727 C 114.712 7.942 114.642 9.152 114.642 10.492 L 114.642 21.2 C 114.636 21.598 114.298 21.919 113.884 21.919 Z" fill="rgb(110, 98, 158)"></path><path d="M 62.273 12.421 L 62.273 11.582 C 59.473 11.582 56.514 12.182 56.514 15.484 C 56.514 17.157 57.38 18.29 58.868 18.29 C 59.957 18.29 60.933 17.62 61.548 16.53 C 62.311 15.19 62.273 13.931 62.273 12.421 Z M 66.179 21.865 C 65.923 22.094 65.553 22.11 65.264 21.958 C 63.978 20.89 63.749 20.394 63.041 19.375 C 60.916 21.544 59.413 22.192 56.656 22.192 C 53.398 22.192 50.859 20.181 50.859 16.154 C 50.859 13.01 52.564 10.868 54.989 9.822 C 57.092 8.896 60.028 8.732 62.273 8.476 L 62.273 7.975 C 62.273 7.054 62.344 5.964 61.804 5.168 C 61.33 4.454 60.426 4.16 59.631 4.16 C 58.154 4.16 56.836 4.918 56.514 6.487 C 56.449 6.836 56.193 7.179 55.844 7.195 L 52.085 6.792 C 51.769 6.721 51.42 6.465 51.507 5.98 C 52.373 1.425 56.487 0.051 60.17 0.051 C 62.055 0.051 64.518 0.553 66.005 1.98 C 67.89 3.741 67.71 6.089 67.71 8.645 L 67.71 14.683 C 67.71 16.498 68.462 17.293 69.17 18.274 C 69.421 18.623 69.476 19.042 69.16 19.304 C 68.37 19.963 66.964 21.189 66.19 21.876 Z" fill="rgb(110, 98, 158)"></path><path d="M 11.49 12.421 L 11.49 11.582 C 8.689 11.582 5.731 12.182 5.731 15.484 C 5.731 17.157 6.597 18.29 8.084 18.29 C 9.174 18.29 10.149 17.62 10.765 16.53 C 11.528 15.19 11.49 13.931 11.49 12.421 Z M 15.396 21.865 C 15.14 22.094 14.769 22.11 14.481 21.958 C 13.195 20.89 12.966 20.394 12.258 19.375 C 10.133 21.544 8.629 22.192 5.872 22.192 C 2.614 22.192 0.075 20.181 0.075 16.154 C 0.075 13.01 1.781 10.868 4.205 9.822 C 6.308 8.896 9.245 8.732 11.49 8.476 L 11.49 7.975 C 11.49 7.054 11.56 5.964 11.021 5.168 C 10.547 4.454 9.643 4.16 8.847 4.16 C 7.371 4.16 6.052 4.918 5.731 6.487 C 5.665 6.836 5.409 7.179 5.061 7.195 L 1.301 6.792 C 0.985 6.721 0.637 6.465 0.724 5.98 C 1.59 1.425 5.704 0.051 9.387 0.051 C 11.272 0.051 13.734 0.553 15.222 1.98 C 17.107 3.741 16.927 6.089 16.927 8.645 L 16.927 14.683 C 16.927 16.498 17.679 17.293 18.387 18.274 C 18.638 18.623 18.692 19.042 18.376 19.304 C 17.586 19.963 16.181 21.189 15.407 21.876 Z" fill="rgb(110, 98, 158)"></path></g></svg>