<svg xmlns="http://www.w3.org/2000/svg" width="177" height="90" fill="none"><g transform="translate(20.77 18.5)"><path d="M 0 0 L 134.903 0 L 134.903 54 L 0 54 Z" fill="transparent"></path><path d="M 113.53 0.003 C 132.376 0 133.12 0.003 133.394 0.079 C 133.978 0.241 134.433 0.627 134.716 1.199 L 134.881 1.533 L 134.892 27.281 L 134.903 53.03 L 134.374 53.237 C 133.048 53.757 132.005 53.932 129.905 53.985 C 126.269 54.076 122.747 53.335 120.69 52.044 L 120.388 51.855 L 119.846 52.22 C 118.911 52.853 117.795 53.337 116.587 53.634 C 113.262 54.452 109.481 53.854 107.085 52.133 L 106.72 51.87 L 106.004 52.238 C 104.85 52.831 104.078 53.127 103 53.392 C 101.147 53.848 98.583 54.07 96.411 53.964 C 94.799 53.885 93.841 53.697 92.599 53.213 L 92.156 53.041 L 92.157 27.484 C 92.157 5.104 92.165 1.893 92.221 1.656 C 92.406 0.873 92.978 0.268 93.725 0.067 C 93.918 0.015 96.825 0.005 113.53 0.003 Z M 113.542 1.603 C 98.131 1.603 94.146 1.615 94.061 1.658 C 94.002 1.687 93.91 1.778 93.856 1.858 L 93.757 2.005 L 93.779 51.935 L 94.016 52.016 C 94.377 52.139 95.013 52.257 95.639 52.318 C 96.512 52.403 98.935 52.39 99.836 52.295 C 101.317 52.139 102.653 51.861 103.612 51.507 C 104.551 51.161 105.422 50.685 106.313 50.032 C 106.521 49.881 106.713 49.756 106.74 49.756 C 106.767 49.756 106.899 49.857 107.033 49.98 C 107.391 50.309 108.073 50.808 108.541 51.084 C 109.591 51.702 110.669 52.081 111.993 52.296 C 112.669 52.406 114.345 52.407 115.042 52.297 C 116.959 51.995 118.615 51.223 120.058 49.958 C 120.329 49.72 120.337 49.716 120.432 49.79 C 121.078 50.285 121.273 50.423 121.663 50.658 C 122.472 51.144 123.259 51.482 124.256 51.769 C 126.616 52.449 130.436 52.597 132.675 52.096 C 132.998 52.024 133.271 51.965 133.282 51.965 C 133.293 51.965 133.302 40.72 133.302 26.976 C 133.302 4.725 133.294 1.974 133.236 1.861 C 133.2 1.791 133.113 1.704 133.044 1.668 C 132.931 1.61 130.776 1.602 113.542 1.603 Z M 112.684 7.135 C 112.976 7.036 113.106 7.017 113.495 7.016 C 114.291 7.015 114.876 7.267 115.411 7.843 C 115.866 8.332 116.082 8.895 116.082 9.592 C 116.082 10.349 115.865 10.873 115.326 11.413 C 115.068 11.672 114.887 11.809 114.624 11.945 C 114.239 12.143 114.047 12.334 113.968 12.598 C 113.899 12.83 113.897 22.921 113.967 23.12 C 114.026 23.289 114.079 23.276 114.23 23.056 C 114.392 22.822 118.193 13.835 118.252 13.548 C 118.32 13.218 118.255 13.03 117.916 12.576 C 117.419 11.907 117.277 11.527 117.281 10.869 C 117.291 9.42 118.436 8.271 119.873 8.271 C 120.588 8.271 121.198 8.529 121.706 9.045 C 122.229 9.577 122.442 10.105 122.442 10.869 C 122.442 11.63 122.225 12.167 121.707 12.693 C 121.28 13.125 120.9 13.318 120.295 13.41 C 119.506 13.53 119.434 13.55 119.255 13.703 C 119.162 13.783 119.035 13.943 118.972 14.058 C 118.91 14.174 118.498 15.116 118.059 16.152 C 114.812 23.797 114.873 23.644 115.074 23.644 C 115.122 23.644 115.236 23.588 115.329 23.519 C 115.578 23.336 122.343 16.803 122.578 16.519 C 122.903 16.127 122.933 15.901 122.751 15.225 C 122.641 14.817 122.63 14.306 122.725 13.906 C 122.938 13 123.715 12.229 124.632 12.013 C 125.041 11.917 125.735 11.95 126.113 12.083 C 126.902 12.36 127.536 13.052 127.75 13.869 C 127.846 14.235 127.844 14.886 127.745 15.221 C 127.507 16.035 126.886 16.702 126.112 16.974 C 125.507 17.187 124.978 17.185 124.324 16.967 C 123.89 16.822 123.684 16.824 123.374 16.974 C 123.2 17.059 122.343 17.873 118.137 21.952 C 116.312 23.723 115.736 24.311 115.736 24.405 C 115.736 24.422 115.848 24.425 115.985 24.412 C 116.171 24.394 117.192 24.02 120.062 22.917 C 125.448 20.849 125.496 20.83 125.706 20.696 C 125.98 20.522 126.105 20.281 126.163 19.812 C 126.3 18.697 126.884 17.938 127.893 17.557 C 128.186 17.447 128.271 17.435 128.759 17.435 C 129.235 17.435 129.335 17.448 129.591 17.546 C 130.457 17.876 131.037 18.486 131.248 19.292 C 131.339 19.639 131.339 20.381 131.249 20.717 C 130.959 21.785 130.014 22.522 128.845 22.591 C 128.159 22.632 127.612 22.438 127.029 21.947 C 126.52 21.518 126.209 21.436 125.724 21.603 C 125.011 21.849 116.593 25.099 116.435 25.19 C 116.196 25.327 116.084 25.558 116.082 25.917 C 116.075 27.052 115.408 27.958 114.295 28.345 L 113.897 28.483 L 113.886 34.226 L 113.875 39.97 L 113.14 39.97 L 113.14 28.501 L 112.848 28.406 C 112.1 28.161 111.533 27.715 111.229 27.13 C 111.019 26.726 110.943 26.443 110.898 25.884 C 110.865 25.486 110.845 25.401 110.759 25.31 C 110.649 25.192 110.295 25.049 106.996 23.782 C 100.765 21.389 101.133 21.523 100.796 21.522 C 100.539 21.522 100.407 21.589 100.015 21.92 C 99.506 22.349 99.043 22.541 98.409 22.588 C 97.709 22.639 97.013 22.385 96.482 21.884 C 95.947 21.378 95.711 20.882 95.674 20.18 C 95.622 19.207 96.024 18.375 96.794 17.86 C 98.098 16.988 99.876 17.439 100.553 18.816 C 100.718 19.149 100.85 19.627 100.852 19.898 C 100.854 20.071 101.026 20.431 101.181 20.585 C 101.331 20.733 101.524 20.835 102.016 21.024 C 103.539 21.609 105.062 22.195 106.585 22.781 C 110.652 24.345 111.236 24.547 111.236 24.392 C 111.236 24.259 110.744 23.757 108.359 21.455 C 106.908 20.054 105.295 18.497 104.776 17.996 C 104.256 17.494 103.76 17.04 103.672 16.986 C 103.452 16.851 103.084 16.856 102.595 17 C 101.885 17.209 101.165 17.144 100.538 16.815 C 99.751 16.401 99.242 15.595 99.18 14.665 C 99.099 13.45 99.912 12.336 101.112 12.016 C 101.421 11.934 102.108 11.934 102.423 12.016 C 103.242 12.23 103.962 12.913 104.23 13.73 C 104.378 14.182 104.379 14.863 104.234 15.328 C 104.038 15.955 104.112 16.21 104.652 16.761 C 105.585 17.712 111.633 23.504 111.771 23.579 C 111.911 23.654 111.937 23.657 111.973 23.601 C 112.06 23.465 112.196 23.805 109.799 18.166 C 108.918 16.094 108.149 14.301 108.09 14.182 C 107.829 13.659 107.632 13.527 107.024 13.464 C 106.233 13.383 105.737 13.157 105.272 12.667 C 104.932 12.309 104.745 11.964 104.617 11.458 C 104.507 11.025 104.507 10.671 104.616 10.246 C 104.739 9.764 104.934 9.425 105.309 9.048 C 106.13 8.22 107.247 8.043 108.318 8.571 C 109.134 8.974 109.659 9.785 109.711 10.723 C 109.751 11.441 109.566 11.986 109.078 12.595 C 108.798 12.943 108.703 13.187 108.736 13.478 C 108.758 13.674 108.949 14.136 111.165 19.364 C 112.658 22.887 112.71 23.005 112.849 23.157 C 113.121 23.453 113.118 23.501 113.118 17.885 C 113.118 13.979 113.106 12.8 113.064 12.662 C 112.966 12.34 112.797 12.164 112.362 11.93 C 111.431 11.431 110.924 10.618 110.919 9.614 C 110.915 8.918 111.143 8.334 111.609 7.839 C 111.957 7.47 112.235 7.288 112.684 7.135 Z M 5.845 8.498 L 5.882 8.401 L 9.467 8.401 L 9.509 8.52 C 9.533 8.585 10.832 12.059 12.396 16.239 C 13.961 20.419 15.25 23.883 15.262 23.936 L 15.283 24.034 L 11.688 24.034 L 11.605 23.806 C 11.56 23.681 11.293 22.902 11.012 22.074 L 10.502 20.569 L 7.605 20.58 L 4.708 20.591 L 4.112 22.28 L 3.517 23.969 L 1.759 23.98 C 0.682 23.987 0 23.976 0 23.951 C 0 23.928 1.307 20.464 2.904 16.253 C 4.502 12.041 5.825 8.552 5.845 8.498 Z M 37.999 8.401 L 41.102 8.401 L 41.113 12.539 L 41.124 16.676 L 44.961 12.688 L 46.821 12.688 C 47.888 12.688 48.675 12.704 48.667 12.726 C 48.659 12.748 47.712 13.682 46.562 14.802 C 45.412 15.923 44.474 16.855 44.476 16.875 C 44.478 16.894 45.526 18.487 46.804 20.413 C 48.082 22.34 49.145 23.945 49.166 23.98 C 49.199 24.036 49.068 24.041 48.127 24.022 C 46.951 23.997 46.683 23.964 46.1 23.769 C 45.238 23.482 44.761 23.069 44.177 22.104 C 43.229 20.535 42.302 19.054 42.268 19.054 C 42.247 19.054 41.976 19.3 41.666 19.6 L 41.102 20.147 L 41.102 23.99 L 38.001 23.99 L 37.973 22.464 C 37.936 20.509 37.935 8.868 37.972 8.602 Z M 49.453 8.401 L 52.608 8.401 L 52.623 15.254 C 52.637 21.962 52.639 22.122 52.73 22.821 C 52.781 23.214 52.861 23.646 52.908 23.78 L 52.993 24.026 L 52.51 24.055 C 51.933 24.09 51.054 24.02 50.598 23.903 C 50.023 23.756 49.637 23.514 49.512 23.223 C 49.462 23.107 49.453 21.88 49.453 15.742 Z M 84.338 8.401 L 87.433 8.401 L 87.47 22.236 L 87.581 22.951 C 87.642 23.344 87.721 23.746 87.757 23.845 L 87.822 24.024 L 87.382 24.053 C 86.834 24.089 85.932 24.019 85.458 23.904 C 84.787 23.742 84.453 23.513 84.328 23.132 L 84.275 22.971 L 83.96 23.275 C 83.215 23.996 82.242 24.337 80.936 24.336 C 80.112 24.336 79.251 24.122 78.594 23.755 C 76.946 22.832 75.931 20.774 75.931 18.354 C 75.931 16.752 76.259 15.55 77.004 14.423 C 77.683 13.396 78.64 12.758 79.912 12.486 C 80.414 12.379 81.536 12.378 81.961 12.485 C 82.703 12.671 83.302 13.004 83.871 13.548 L 84.217 13.879 L 84.244 13.208 C 84.258 12.838 84.273 11.784 84.276 10.865 C 84.279 9.946 84.294 9.015 84.31 8.797 Z M 7.644 12.314 C 7.632 12.301 5.666 17.85 5.667 17.895 C 5.668 17.933 9.562 17.94 9.562 17.902 C 9.562 17.888 9.133 16.628 8.608 15.1 C 8.084 13.573 7.65 12.319 7.644 12.314 Z M 33.149 12.469 C 34.537 12.707 35.747 13.376 36.439 14.289 C 36.867 14.853 37.235 15.82 37.263 16.451 L 37.273 16.694 L 34.232 16.716 L 34.137 16.404 C 33.998 15.947 33.821 15.625 33.572 15.375 C 32.825 14.627 31.434 14.56 30.545 15.229 C 29.806 15.785 29.334 17.004 29.334 18.356 C 29.335 19.993 29.93 21.295 30.87 21.717 C 31.34 21.928 32.059 21.985 32.574 21.852 C 33.407 21.637 34.035 20.933 34.247 19.98 L 34.318 19.66 L 37.338 19.66 L 37.337 19.779 C 37.337 19.845 37.299 20.066 37.254 20.27 C 36.984 21.495 36.41 22.492 35.603 23.14 C 34.97 23.648 33.944 24.09 32.968 24.274 C 32.362 24.389 31.36 24.379 30.762 24.254 C 29.613 24.012 28.565 23.497 27.847 22.823 C 27.08 22.102 26.571 21.132 26.299 19.876 C 26.213 19.48 26.2 19.295 26.199 18.426 C 26.198 17.539 26.208 17.381 26.298 16.982 C 26.717 15.11 27.664 13.765 29.075 13.039 C 29.666 12.734 30.406 12.514 31.173 12.415 C 31.594 12.36 32.689 12.39 33.149 12.469 Z M 60.054 12.429 C 61.007 12.545 61.849 12.785 62.421 13.103 C 62.827 13.329 63.289 13.8 63.483 14.185 C 63.803 14.82 63.785 14.584 63.819 18.772 C 63.849 22.618 63.858 22.806 64.033 23.543 C 64.081 23.745 64.12 23.941 64.12 23.977 C 64.12 24.035 64.009 24.041 63.222 24.023 C 62.439 24.005 62.271 23.988 61.909 23.892 C 61.257 23.72 61.002 23.552 60.855 23.2 C 60.778 23.015 60.746 23.004 60.639 23.122 C 60.496 23.28 59.923 23.65 59.55 23.825 C 58.577 24.281 57.017 24.451 55.903 24.221 C 55.1 24.056 54.453 23.716 53.972 23.207 C 53.662 22.879 53.484 22.58 53.318 22.107 C 53.2 21.772 53.196 21.732 53.197 20.916 C 53.198 20.111 53.203 20.055 53.317 19.716 C 53.559 18.994 54.028 18.467 54.774 18.083 C 55.436 17.742 56.05 17.592 57.716 17.365 C 59.209 17.162 59.635 17.078 59.983 16.917 C 60.504 16.675 60.695 16.357 60.641 15.823 C 60.574 15.165 60.291 14.796 59.729 14.63 C 59.45 14.547 58.725 14.506 58.31 14.549 C 57.38 14.646 56.937 15.003 56.718 15.831 L 56.622 16.196 L 53.485 16.196 L 53.504 16.012 C 53.611 15.024 54.044 14.143 54.699 13.583 C 55.393 12.99 56.323 12.621 57.543 12.455 C 58.085 12.382 59.539 12.367 60.054 12.429 Z M 71.308 12.392 C 72.512 12.377 73.588 12.697 74.213 13.254 C 74.775 13.755 75.064 14.336 75.311 15.465 C 75.372 15.74 75.385 16.299 75.408 19.487 C 75.434 23.124 75.436 23.194 75.526 23.433 C 75.577 23.567 75.67 23.752 75.732 23.844 L 75.846 24.012 L 75.467 24.048 C 74.973 24.096 73.899 24.02 73.427 23.904 C 72.827 23.758 72.505 23.565 72.354 23.26 C 72.281 23.114 72.274 22.873 72.25 19.942 C 72.226 16.948 72.22 16.759 72.135 16.382 C 71.915 15.409 71.432 14.968 70.522 14.909 C 69.426 14.838 68.692 15.186 68.316 15.954 C 68.015 16.566 68.005 16.645 67.968 18.599 C 67.95 19.576 67.934 21.188 67.931 22.182 L 67.927 23.99 L 64.812 23.99 L 64.812 12.688 L 67.754 12.688 L 67.754 14.163 L 68.171 13.728 C 68.619 13.261 68.99 12.987 69.493 12.755 C 69.787 12.619 70.327 12.458 70.631 12.416 C 70.703 12.406 71.007 12.395 71.308 12.392 Z M 14.981 16.835 L 14.966 12.688 L 18.124 12.688 L 18.14 16.358 C 18.157 20.391 18.152 20.31 18.426 20.897 C 18.785 21.665 19.626 21.981 20.715 21.757 C 21.561 21.583 22.096 21.007 22.305 20.05 C 22.398 19.619 22.448 17.914 22.452 14.972 L 22.455 12.688 L 25.57 12.688 L 25.572 16.163 C 25.576 20.625 25.621 22.518 25.738 23.081 C 25.817 23.458 25.904 23.774 25.978 23.953 C 26.004 24.014 25.954 24.027 25.605 24.053 C 25.094 24.09 24.167 24.015 23.732 23.901 C 22.896 23.682 22.586 23.374 22.585 22.765 L 22.585 22.556 L 22.339 22.847 C 21.803 23.479 21.014 23.971 20.18 24.193 C 19.795 24.295 19.673 24.307 18.994 24.308 C 18.39 24.308 18.153 24.29 17.825 24.22 C 16.251 23.879 15.473 23.076 15.09 21.393 C 14.998 20.988 14.996 20.905 14.981 16.835 Z M 81.166 14.836 C 80.274 15.076 79.646 15.693 79.322 16.647 C 79.101 17.294 79.019 18.052 79.09 18.774 C 79.185 19.741 79.428 20.44 79.865 21.007 C 80.377 21.671 81.102 21.996 81.948 21.939 C 82.634 21.893 83.202 21.632 83.591 21.183 C 83.83 20.909 84.13 20.28 84.236 19.833 C 84.448 18.944 84.448 17.768 84.237 16.889 C 83.98 15.822 83.306 15.071 82.393 14.835 C 82.065 14.751 81.484 14.751 81.166 14.836 Z M 60.653 19.368 C 60.671 18.88 60.665 18.622 60.637 18.626 C 60.613 18.628 60.335 18.706 60.019 18.797 C 59.681 18.895 59.131 19.01 58.689 19.075 C 57.683 19.223 57.18 19.385 56.78 19.689 C 56.257 20.088 56.14 21.082 56.55 21.641 C 56.816 22.003 57.359 22.171 58.257 22.171 C 59.046 22.17 59.516 22.011 59.956 21.594 C 60.221 21.343 60.362 21.125 60.479 20.783 C 60.594 20.447 60.623 20.211 60.653 19.368 Z M 107.063 26.328 C 108.858 27.334 110.364 28.672 111.508 30.276 C 111.802 30.688 112.488 31.841 112.463 31.881 C 112.42 31.952 112.29 31.904 111.483 31.521 C 105.947 28.893 101.645 27.393 97.398 26.612 C 96.962 26.532 96.594 26.455 96.58 26.441 C 96.54 26.401 96.875 26.027 97.184 25.766 C 97.924 25.141 98.855 24.805 100.165 24.688 C 102.431 24.487 104.767 25.042 107.063 26.328 Z M 129.335 25.4 C 129.66 25.591 130.233 26.089 130.406 26.334 L 130.491 26.452 L 130.263 26.497 C 130.138 26.521 129.617 26.622 129.105 26.721 C 127.448 27.042 125.811 27.474 124.003 28.068 C 121.291 28.959 119 29.9 115.325 31.63 C 114.992 31.787 114.696 31.915 114.667 31.915 C 114.475 31.916 115.231 30.622 115.969 29.685 C 116.413 29.122 117.497 28.047 118.073 27.6 C 120.226 25.928 122.507 24.96 124.887 24.709 C 126.699 24.518 128.239 24.757 129.335 25.4 Z M 84.308 25.809 C 84.407 25.852 84.504 25.895 84.602 25.94 C 85.147 26.187 86.02 26.326 87.04 26.328 L 87.44 26.329 L 87.441 32.727 C 87.442 36.246 87.461 39.486 87.482 39.928 C 87.521 40.716 87.622 41.384 87.764 41.788 C 87.801 41.891 87.819 41.987 87.805 42.001 C 87.79 42.015 87.396 42.025 86.928 42.022 C 86.227 42.019 85.998 42.001 85.626 41.923 C 84.929 41.775 84.575 41.582 84.399 41.254 L 84.303 41.074 L 84.303 33.442 C 84.303 29.244 84.306 25.809 84.308 25.809 Z M 27.236 26.139 C 29.085 26.504 30.709 27.626 31.568 29.133 C 31.881 29.684 32.208 30.637 32.298 31.265 C 32.313 31.373 32.335 31.495 32.347 31.537 C 32.368 31.609 32.275 31.612 30.675 31.602 L 28.981 31.59 L 28.861 31.215 C 28.46 29.967 27.554 29.228 26.134 28.99 C 24.573 28.729 23.15 29.345 22.309 30.647 C 21.993 31.134 21.713 31.864 21.551 32.623 C 21.051 34.954 21.703 37.506 23.081 38.613 C 24.236 39.539 26.142 39.716 27.338 39.007 C 27.469 38.929 27.722 38.729 27.9 38.562 C 28.522 37.979 28.848 37.32 29.074 36.191 L 29.124 35.942 L 32.491 35.942 L 32.467 36.148 C 32.325 37.343 32.01 38.326 31.475 39.232 C 30.343 41.149 28.591 42.161 26.069 42.355 C 23.812 42.53 21.694 41.769 20.159 40.233 C 19.313 39.386 18.784 38.5 18.395 37.276 C 18.051 36.195 17.902 35.247 17.901 34.124 C 17.9 32.554 18.2 31.32 18.933 29.879 C 20.08 27.626 22.01 26.339 24.705 26.031 C 25.482 25.942 26.444 25.983 27.236 26.139 Z M 80.085 26.372 L 83.2 26.372 L 83.2 28.97 L 80.085 28.97 Z M 96.324 26.838 L 96.553 26.865 C 97.316 26.955 99.839 27.566 101.372 28.033 C 104.27 28.915 106.592 29.827 110.674 31.688 C 112.142 32.358 112.318 32.443 112.318 32.482 C 112.318 32.498 112.118 32.582 111.874 32.668 C 109.36 33.551 105.869 33.561 102.647 32.694 C 100.497 32.116 98.53 31.142 97.443 30.117 C 96.959 29.66 96.714 29.35 96.457 28.866 C 96.131 28.253 96.071 27.738 96.252 27.094 Z M 130.596 26.861 C 130.707 26.869 130.732 26.896 130.786 27.065 C 130.882 27.368 130.876 28.157 130.775 28.451 C 130.461 29.37 129.809 30.087 128.516 30.934 C 126.734 32.102 124.155 32.94 121.339 33.266 C 121.056 33.299 120.335 33.322 119.565 33.322 C 118.168 33.322 117.616 33.273 116.591 33.058 C 115.812 32.895 114.741 32.561 114.741 32.481 C 114.741 32.418 116.996 31.366 118.808 30.585 C 122.777 28.875 126.302 27.711 129.542 27.042 C 130.051 26.937 130.525 26.855 130.596 26.861 Z M 39.112 30.379 C 39.717 30.389 40.01 30.414 40.312 30.481 C 42.522 30.97 43.975 32.341 44.521 34.451 C 44.704 35.162 44.821 36.276 44.774 36.869 C 44.654 38.367 44.126 39.656 43.243 40.61 C 42.492 41.423 41.438 41.965 40.129 42.212 C 39.523 42.326 38.062 42.314 37.503 42.189 C 35.274 41.692 33.862 40.379 33.295 38.274 C 32.905 36.828 32.928 35.457 33.366 34.151 C 34.112 31.92 35.679 30.689 38.16 30.383 C 38.244 30.373 38.672 30.371 39.112 30.379 Z M 64.762 30.464 C 65.197 30.549 65.665 30.711 65.959 30.878 C 66.652 31.274 67.169 31.968 67.406 32.824 C 67.637 33.655 67.638 33.674 67.666 37.566 C 67.696 41.573 67.685 41.431 67.968 41.821 L 68.095 41.998 L 67.72 42.029 C 66.609 42.121 65.238 41.878 64.824 41.514 C 64.518 41.245 64.534 41.421 64.506 37.891 C 64.483 34.803 64.479 34.697 64.388 34.351 C 64.116 33.316 63.569 32.87 62.571 32.868 C 61.415 32.867 60.719 33.321 60.417 34.275 C 60.203 34.949 60.183 35.339 60.183 38.803 L 60.183 42.005 L 57.024 42.005 L 57.024 30.659 L 60.01 30.659 L 60.01 31.395 C 60.01 31.8 60.025 32.132 60.044 32.132 C 60.062 32.132 60.11 32.077 60.149 32.01 C 60.256 31.829 60.903 31.224 61.199 31.029 C 61.663 30.722 62.26 30.5 62.89 30.401 C 63.254 30.344 64.335 30.38 64.762 30.464 Z M 74.266 30.379 C 75.333 30.402 76.04 30.565 76.887 30.983 C 78.204 31.633 78.982 32.616 79.26 33.982 C 79.309 34.222 79.349 34.479 79.349 34.553 L 79.349 34.687 L 76.29 34.687 L 76.215 34.407 C 75.966 33.487 75.426 32.972 74.532 32.802 C 74.11 32.722 73.914 32.722 73.53 32.803 C 72.853 32.945 72.285 33.371 71.963 33.977 C 71.626 34.612 71.389 35.602 71.389 36.375 C 71.389 37.175 71.647 38.222 71.988 38.806 C 72.536 39.745 73.656 40.144 74.77 39.798 C 75.47 39.581 76.075 38.921 76.273 38.16 L 76.366 37.804 L 76.411 37.631 L 77.923 37.631 C 78.755 37.631 79.436 37.648 79.436 37.668 C 79.436 37.811 79.23 38.671 79.123 38.974 C 78.5 40.741 77.127 41.875 75.203 42.209 C 74.593 42.314 73.225 42.313 72.731 42.207 C 70.673 41.764 69.272 40.585 68.63 38.757 C 67.911 36.707 68.177 34.387 69.33 32.654 C 69.811 31.929 70.398 31.405 71.165 31.013 C 71.809 30.683 72.34 30.533 73.4 30.382 C 73.472 30.372 73.861 30.37 74.266 30.379 Z M 52.827 30.659 L 55.98 30.659 L 55.997 35.26 C 56.013 39.659 56.018 39.895 56.108 40.637 C 56.16 41.063 56.24 41.54 56.287 41.696 C 56.334 41.852 56.361 41.99 56.348 42.003 C 56.301 42.05 54.831 42.023 54.536 41.969 C 53.772 41.83 53.271 41.593 53.1 41.29 C 53.025 41.157 53.002 41.048 53.001 40.819 L 53.001 40.52 L 52.819 40.732 C 51.825 41.89 50.681 42.368 49.085 42.292 C 46.888 42.188 45.724 41.144 45.433 39.017 C 45.407 38.821 45.384 37.11 45.377 34.708 L 45.364 30.724 L 46.93 30.713 L 48.496 30.701 L 48.513 34.329 C 48.528 37.547 48.539 37.99 48.604 38.259 C 48.807 39.101 49.243 39.595 49.925 39.754 C 50.262 39.832 51.042 39.787 51.392 39.669 C 51.742 39.551 51.937 39.426 52.172 39.171 C 52.402 38.921 52.538 38.632 52.651 38.151 C 52.811 37.477 52.827 37.08 52.827 33.831 Z M 80.085 30.703 L 83.157 30.703 L 83.157 42.005 L 80.085 42.005 Z M 36.647 34.122 C 36.375 34.661 36.171 35.609 36.171 36.332 C 36.171 37.385 36.531 38.58 37.015 39.134 C 37.716 39.936 39.089 40.158 40.124 39.636 C 41.172 39.108 41.735 37.665 41.588 35.882 C 41.443 34.132 40.801 33.146 39.586 32.81 C 38.457 32.497 37.178 33.068 36.647 34.122 Z M 106.65 38.37 C 106.662 38.37 106.759 38.499 106.866 38.658 C 107.261 39.242 108.043 39.976 108.748 40.425 C 109.208 40.717 110.182 41.167 110.8 41.373 C 112.151 41.823 113.242 41.923 114.632 41.725 C 115.569 41.592 116.457 41.34 117.221 40.992 C 118.233 40.531 119.315 39.71 119.897 38.964 C 120.047 38.771 120.211 38.565 120.26 38.505 L 120.35 38.398 L 120.67 38.783 C 121.317 39.563 121.743 39.956 122.42 40.401 C 123.464 41.086 125.086 41.646 126.444 41.792 C 127.762 41.933 129.493 41.626 130.857 41.008 C 131.024 40.932 131.204 40.854 131.257 40.833 L 131.355 40.795 L 131.355 42.82 L 130.998 42.957 C 130.242 43.248 129.215 43.504 128.37 43.613 C 127.791 43.688 126.463 43.676 125.89 43.591 C 123.91 43.298 122.063 42.535 120.65 41.426 C 120.509 41.316 120.377 41.225 120.357 41.225 C 120.337 41.225 120.199 41.321 120.051 41.437 C 119.225 42.085 117.947 42.772 116.947 43.104 C 115.77 43.496 114.79 43.651 113.486 43.651 C 112.962 43.651 112.425 43.624 112.115 43.584 C 110.188 43.333 108.512 42.629 106.864 41.379 L 106.668 41.23 L 106.147 41.585 C 104.61 42.633 103.116 43.256 101.437 43.55 C 100.807 43.661 98.901 43.661 98.246 43.551 C 97.574 43.437 96.978 43.288 96.277 43.058 L 95.661 42.856 L 95.661 41.846 C 95.661 41.29 95.677 40.836 95.697 40.836 C 95.718 40.836 95.945 40.924 96.203 41.032 C 98.283 41.904 100.104 42.045 102.081 41.485 C 104.037 40.932 105.524 39.953 106.471 38.596 C 106.558 38.472 106.638 38.37 106.65 38.37 Z M 106.62 42.269 C 106.639 42.267 106.831 42.392 107.047 42.547 C 108.428 43.539 110.021 44.283 111.46 44.605 C 112.707 44.885 114.171 44.893 115.433 44.627 C 116.76 44.346 118.251 43.683 119.644 42.753 C 120.046 42.484 120.382 42.265 120.39 42.265 C 120.397 42.265 120.536 42.365 120.698 42.489 C 121.218 42.884 121.94 43.34 122.534 43.647 C 125.12 44.987 127.712 45.172 130.563 44.22 L 131.311 43.97 L 131.311 45.934 L 131.084 46.02 C 130.49 46.248 129.554 46.488 128.737 46.624 C 128.057 46.737 126.257 46.737 125.579 46.624 C 123.907 46.347 122.374 45.733 120.863 44.737 C 120.625 44.58 120.415 44.445 120.397 44.437 C 120.379 44.429 120.206 44.524 120.012 44.648 C 117.612 46.189 115.299 46.862 112.888 46.721 C 111.003 46.611 109.141 45.978 107.239 44.802 C 106.909 44.597 106.621 44.43 106.601 44.43 C 106.58 44.43 106.444 44.518 106.297 44.627 C 104.483 45.963 102.09 46.727 99.712 46.729 C 98.516 46.731 97.611 46.58 96.392 46.179 L 95.661 45.937 L 95.661 44.941 C 95.661 44.008 95.665 43.946 95.736 43.978 C 96.103 44.141 97.284 44.495 97.806 44.599 C 98.714 44.78 99.362 44.837 100.182 44.806 C 102.262 44.729 104.199 44.014 106.117 42.614 C 106.375 42.427 106.601 42.271 106.62 42.269 Z M 106.659 45.386 L 106.968 45.633 C 107.764 46.27 108.876 46.917 109.808 47.289 C 110.385 47.518 111.198 47.742 111.864 47.855 C 112.536 47.97 113.767 48.01 114.461 47.941 C 116.443 47.742 118.262 46.994 119.976 45.672 L 120.344 45.389 L 120.473 45.488 C 122.318 46.893 124.098 47.677 125.998 47.918 C 126.685 48.006 127.965 47.985 128.655 47.876 C 129.277 47.776 130.165 47.545 130.782 47.32 L 131.313 47.127 L 131.301 48.104 L 131.29 49.08 L 130.924 49.227 C 130.404 49.436 129.651 49.645 128.997 49.763 C 128.497 49.853 128.301 49.864 127.244 49.864 C 126.292 49.864 125.961 49.849 125.586 49.786 C 123.749 49.476 122.085 48.79 120.663 47.757 L 120.377 47.549 L 119.711 47.994 C 118.145 49.04 116.451 49.662 114.663 49.846 C 113.915 49.924 112.301 49.877 111.631 49.758 C 109.917 49.454 108.202 48.711 106.841 47.684 L 106.664 47.55 L 106.49 47.678 C 106.163 47.919 105.157 48.509 104.681 48.74 C 103.67 49.23 102.751 49.536 101.678 49.74 C 100.96 49.877 99.522 49.929 98.725 49.847 C 97.884 49.76 96.659 49.476 95.909 49.194 L 95.661 49.1 L 95.661 47.148 L 95.758 47.171 C 95.811 47.183 96.079 47.272 96.353 47.369 C 97.467 47.762 98.411 47.937 99.577 47.969 C 100.204 47.986 100.537 47.974 100.974 47.918 C 102.836 47.681 104.665 46.895 106.384 45.594 Z M 11.902 45.861 L 11.949 45.642 L 13.524 45.642 C 15.286 45.642 15.141 45.611 15.051 45.97 L 15.003 46.162 L 13.721 46.162 L 13.652 46.476 C 13.614 46.649 13.45 47.414 13.289 48.176 L 12.995 49.561 L 12.706 49.574 C 12.547 49.581 12.417 49.578 12.417 49.567 C 12.417 49.556 12.573 48.808 12.763 47.905 C 12.954 47.002 13.11 46.24 13.11 46.212 C 13.11 46.176 12.93 46.162 12.482 46.162 C 12.114 46.162 11.855 46.145 11.855 46.121 C 11.855 46.098 11.876 45.981 11.902 45.861 Z M 21.308 45.646 L 21.665 45.644 C 21.862 45.643 22.022 45.655 22.022 45.671 C 22.022 45.707 21.654 46.04 21.049 46.551 C 20.787 46.772 20.487 47.032 20.382 47.128 C 20.197 47.297 20.193 47.307 20.254 47.415 C 20.675 48.153 21.374 49.504 21.352 49.538 C 21.287 49.644 20.893 49.567 20.746 49.42 C 20.686 49.36 20.438 48.943 20.195 48.494 C 19.952 48.045 19.738 47.682 19.721 47.688 C 19.613 47.725 19.04 48.259 19.001 48.359 C 18.963 48.456 18.734 49.487 18.734 49.562 C 18.734 49.574 18.608 49.583 18.453 49.583 C 18.257 49.583 18.171 49.567 18.171 49.529 C 18.171 49.499 18.35 48.622 18.569 47.58 L 18.967 45.686 L 19.24 45.686 C 19.445 45.686 19.513 45.701 19.513 45.746 C 19.513 45.78 19.445 46.163 19.362 46.598 C 19.279 47.034 19.216 47.395 19.221 47.4 C 19.227 47.406 19.699 47.014 20.27 46.528 Z M 47.08 45.642 L 48.656 45.642 C 50.417 45.642 50.261 45.611 50.204 45.956 L 50.177 46.119 L 48.863 46.119 L 48.498 47.84 L 48.133 49.561 L 47.84 49.574 C 47.553 49.587 47.547 49.585 47.569 49.488 C 47.664 49.074 48.241 46.27 48.241 46.222 C 48.241 46.174 48.121 46.162 47.614 46.162 C 47.246 46.162 46.987 46.145 46.987 46.121 C 46.987 46.098 47.008 45.981 47.033 45.861 Z M 60.534 45.642 C 60.777 45.642 60.789 45.647 60.768 45.74 C 60.65 46.248 60.353 47.776 60.369 47.792 C 60.38 47.803 60.677 47.567 61.03 47.268 L 61.671 46.725 L 61.991 46.725 C 62.167 46.725 62.303 46.743 62.295 46.765 C 62.288 46.787 62.028 47.023 61.718 47.289 C 61.409 47.556 61.15 47.789 61.144 47.807 C 61.137 47.825 61.278 48.214 61.457 48.672 C 61.637 49.13 61.783 49.522 61.783 49.544 C 61.783 49.565 61.697 49.583 61.592 49.583 C 61.28 49.583 61.178 49.461 60.941 48.812 C 60.831 48.508 60.722 48.231 60.701 48.196 C 60.669 48.145 60.614 48.18 60.424 48.368 C 60.189 48.6 60.184 48.609 60.072 49.093 L 59.958 49.583 L 59.703 49.583 C 59.562 49.583 59.447 49.574 59.447 49.562 C 59.447 49.536 60.217 45.886 60.253 45.745 C 60.276 45.651 60.301 45.642 60.534 45.642 Z M 73.226 45.642 C 73.425 45.642 73.465 45.655 73.465 45.718 C 73.465 45.76 73.376 46.222 73.269 46.745 C 73.161 47.268 73.078 47.72 73.085 47.751 C 73.092 47.781 73.385 47.563 73.738 47.265 L 74.38 46.725 L 74.701 46.725 C 74.878 46.725 75.021 46.74 75.02 46.758 C 75.018 46.775 74.755 47.013 74.436 47.285 C 74.116 47.557 73.855 47.804 73.855 47.833 C 73.855 47.863 74.001 48.258 74.179 48.711 C 74.358 49.165 74.504 49.547 74.504 49.56 C 74.504 49.61 74.146 49.58 74.03 49.519 C 73.904 49.454 73.826 49.294 73.527 48.49 C 73.458 48.305 73.392 48.155 73.38 48.155 C 73.367 48.156 73.25 48.258 73.119 48.382 L 72.88 48.609 L 72.776 49.096 L 72.672 49.583 L 72.419 49.583 C 72.247 49.583 72.167 49.566 72.167 49.529 C 72.167 49.473 72.936 45.794 72.969 45.696 C 72.98 45.662 73.073 45.642 73.226 45.642 Z M 30.729 45.686 L 31.249 45.686 L 31.219 45.827 C 31.202 45.904 31.178 46.031 31.164 46.108 L 31.14 46.249 L 30.861 46.249 C 30.616 46.249 30.586 46.24 30.606 46.173 C 30.618 46.131 30.651 46.004 30.679 45.891 Z M 31.777 45.686 L 32.287 45.686 L 32.26 45.848 C 32.244 45.937 32.186 46.22 32.13 46.476 C 32.074 46.732 32.042 46.942 32.06 46.942 C 32.078 46.942 32.199 46.893 32.328 46.834 C 32.859 46.59 33.313 46.607 33.577 46.88 C 33.802 47.112 33.799 47.382 33.561 48.558 C 33.455 49.078 33.348 49.523 33.323 49.548 C 33.297 49.575 33.214 49.582 33.121 49.565 C 32.855 49.514 32.851 49.432 33.058 48.408 C 33.167 47.873 33.228 47.468 33.212 47.401 C 33.125 47.054 32.507 47.063 32.154 47.417 C 31.927 47.644 31.844 47.862 31.664 48.71 C 31.57 49.151 31.484 49.527 31.471 49.547 C 31.434 49.607 30.978 49.591 30.977 49.529 C 30.977 49.499 31.157 48.622 31.377 47.58 Z M 62.963 45.686 L 63.241 45.686 C 63.486 45.686 63.517 45.695 63.499 45.762 C 63.466 45.884 63.436 46.006 63.409 46.13 C 63.384 46.243 63.371 46.249 63.119 46.249 C 62.868 46.249 62.857 46.244 62.88 46.151 C 62.901 46.058 62.919 45.964 62.933 45.87 Z M 65.903 45.695 L 66.302 45.707 L 66.547 47.279 C 66.682 48.144 66.8 48.858 66.808 48.866 C 66.817 48.874 67.239 48.161 67.747 47.283 L 68.67 45.686 L 69.449 45.686 L 69.421 45.848 C 69.406 45.937 69.224 46.809 69.017 47.786 L 68.641 49.561 L 68.371 49.574 C 68.207 49.582 68.1 49.57 68.1 49.543 C 68.1 49.519 68.247 48.861 68.425 48.082 C 68.604 47.302 68.745 46.647 68.738 46.625 C 68.731 46.604 68.326 47.261 67.839 48.085 L 66.954 49.583 L 66.394 49.561 L 66.193 48.219 C 66.083 47.481 65.977 46.779 65.959 46.66 C 65.941 46.541 65.915 46.473 65.902 46.508 C 65.889 46.544 65.74 47.246 65.57 48.067 L 65.261 49.561 L 64.993 49.574 C 64.784 49.584 64.726 49.574 64.726 49.525 C 64.726 49.491 64.901 48.626 65.115 47.603 C 65.329 46.58 65.504 45.729 65.504 45.712 C 65.504 45.696 65.684 45.688 65.903 45.695 Z M 50.697 45.946 L 51.416 45.946 C 51.853 45.946 52.135 45.962 52.135 45.988 C 52.135 46.011 52.092 46.118 52.04 46.226 L 51.945 46.422 L 50.751 46.422 L 50.751 46.319 C 50.751 46.262 50.739 46.155 50.724 46.081 Z M 16.193 46.778 C 16.604 46.954 16.787 47.32 16.787 47.967 L 16.787 48.327 L 14.677 48.327 L 14.656 48.467 C 14.612 48.768 14.754 48.996 15.067 49.126 C 15.381 49.258 15.697 49.163 15.976 48.854 C 16.126 48.687 16.154 48.674 16.36 48.674 L 16.582 48.674 L 16.557 48.827 C 16.477 49.324 15.837 49.715 15.201 49.655 C 14.86 49.623 14.486 49.451 14.339 49.257 C 14.036 48.86 14.029 48.077 14.324 47.499 C 14.523 47.108 14.949 46.76 15.322 46.683 C 15.576 46.631 15.942 46.671 16.193 46.778 Z M 23.598 46.704 C 23.909 46.785 24.09 46.91 24.169 47.098 C 24.257 47.31 24.244 47.475 24.082 48.184 C 24.001 48.537 23.922 48.905 23.906 49.003 C 23.878 49.176 23.881 49.182 24.01 49.208 C 24.174 49.241 24.185 49.355 24.039 49.526 C 23.956 49.622 23.899 49.646 23.751 49.646 C 23.597 49.646 23.548 49.624 23.459 49.513 L 23.352 49.38 L 23.131 49.502 C 22.541 49.824 21.764 49.635 21.629 49.135 C 21.559 48.877 21.603 48.49 21.722 48.324 C 21.862 48.127 22.101 48.038 22.822 47.918 C 23.476 47.809 23.638 47.747 23.689 47.589 C 23.766 47.345 23.598 47.171 23.243 47.129 C 22.955 47.096 22.673 47.226 22.511 47.466 C 22.405 47.627 22.39 47.634 22.168 47.634 C 21.912 47.634 21.917 47.641 21.983 47.396 C 22.077 47.053 22.392 46.79 22.833 46.685 C 23.084 46.626 23.321 46.632 23.598 46.704 Z M 29.722 46.95 C 29.786 47.053 29.81 47.169 29.81 47.366 C 29.81 47.7 29.475 49.451 29.395 49.537 C 29.35 49.585 29.299 49.59 29.173 49.559 C 29.017 49.52 29.009 49.509 28.997 49.321 C 28.99 49.213 29.053 48.787 29.137 48.374 C 29.222 47.961 29.291 47.569 29.291 47.501 C 29.291 47.434 29.246 47.327 29.191 47.264 C 29.108 47.167 29.057 47.148 28.875 47.148 C 28.525 47.148 28.156 47.394 27.98 47.744 C 27.926 47.851 27.56 49.424 27.56 49.548 C 27.56 49.592 27.041 49.595 27.04 49.551 C 27.04 49.533 27.171 48.89 27.332 48.122 L 27.625 46.725 L 27.852 46.725 C 28.066 46.725 28.079 46.732 28.079 46.833 C 28.079 46.968 28.098 46.968 28.4 46.83 C 28.535 46.768 28.736 46.703 28.849 46.685 C 29.246 46.623 29.586 46.726 29.722 46.95 Z M 36.308 46.904 C 36.569 47.09 36.74 47.667 36.671 48.128 L 36.641 48.327 L 34.526 48.327 L 34.526 48.516 C 34.526 48.725 34.642 48.932 34.841 49.08 C 34.928 49.144 35.028 49.169 35.209 49.17 C 35.522 49.172 35.752 49.062 35.898 48.84 C 36.003 48.681 36.019 48.674 36.241 48.674 C 36.446 48.674 36.473 48.684 36.473 48.762 C 36.473 48.905 36.317 49.169 36.142 49.323 C 35.868 49.564 35.636 49.645 35.218 49.645 C 34.669 49.645 34.329 49.471 34.122 49.085 C 34.042 48.936 34.029 48.841 34.029 48.414 C 34.029 47.93 34.033 47.906 34.187 47.584 C 34.428 47.079 34.779 46.776 35.233 46.682 C 35.588 46.608 36.017 46.697 36.308 46.904 Z M 38.902 46.659 C 38.913 46.67 38.903 46.795 38.88 46.936 L 38.838 47.192 L 38.622 47.221 C 38.18 47.28 37.889 47.484 37.735 47.846 C 37.687 47.956 37.596 48.289 37.532 48.587 C 37.303 49.654 37.339 49.562 37.155 49.557 C 36.944 49.55 36.862 49.476 36.862 49.293 C 36.862 49.166 37.091 48.036 37.321 47.02 L 37.388 46.725 L 37.863 46.725 L 37.804 47.136 L 37.95 47 C 38.124 46.838 38.343 46.721 38.55 46.679 C 38.741 46.64 38.876 46.633 38.902 46.659 Z M 40.679 46.687 C 41.173 46.792 41.362 46.975 41.362 47.35 C 41.362 47.458 41.294 47.87 41.211 48.265 C 41.027 49.137 41.025 49.175 41.167 49.211 C 41.351 49.257 41.294 49.501 41.073 49.619 C 40.919 49.701 40.801 49.678 40.659 49.536 L 40.526 49.402 L 40.22 49.525 C 39.679 49.743 39.086 49.663 38.878 49.344 C 38.759 49.162 38.703 48.812 38.76 48.604 C 38.89 48.134 39.092 48.045 40.532 47.825 C 40.854 47.775 40.967 47.406 40.708 47.248 C 40.368 47.041 40.025 47.101 39.719 47.421 C 39.532 47.617 39.498 47.634 39.313 47.634 C 39.129 47.634 39.112 47.625 39.112 47.529 C 39.112 47.364 39.192 47.192 39.342 47.035 C 39.509 46.86 39.644 46.786 39.944 46.706 C 40.228 46.629 40.386 46.625 40.679 46.687 Z M 45.387 46.984 C 45.618 47.215 45.689 47.415 45.689 47.836 C 45.689 48.52 45.407 49.108 44.928 49.424 C 44.739 49.549 44.325 49.67 44.087 49.67 C 43.661 49.67 43.228 49.411 43.039 49.045 C 42.91 48.797 42.883 48.215 42.984 47.869 C 43.164 47.249 43.588 46.832 44.174 46.696 C 44.639 46.589 45.102 46.699 45.387 46.984 Z M 54.627 46.902 L 54.76 47.032 L 55.124 46.854 C 55.458 46.691 55.512 46.677 55.77 46.692 C 56.277 46.72 56.505 46.914 56.505 47.316 C 56.506 47.432 56.413 47.991 56.3 48.559 L 56.094 49.591 L 55.923 49.568 C 55.741 49.544 55.64 49.451 55.639 49.304 C 55.638 49.255 55.719 48.829 55.819 48.357 C 56.021 47.403 56.018 47.328 55.778 47.188 C 55.564 47.063 55.297 47.149 55.01 47.437 C 54.763 47.685 54.735 47.762 54.515 48.804 C 54.442 49.149 54.372 49.466 54.359 49.507 C 54.34 49.568 54.286 49.583 54.076 49.583 C 53.85 49.583 53.819 49.573 53.839 49.507 C 53.851 49.466 53.951 48.987 54.062 48.444 C 54.236 47.594 54.257 47.439 54.212 47.331 C 54.058 46.959 53.339 47.184 53.085 47.683 C 53.038 47.775 52.921 48.206 52.825 48.641 C 52.729 49.076 52.641 49.466 52.628 49.507 C 52.61 49.568 52.555 49.583 52.348 49.583 C 52.103 49.583 52.091 49.578 52.113 49.486 C 52.125 49.432 52.252 48.833 52.394 48.154 C 52.537 47.475 52.664 46.876 52.676 46.822 C 52.697 46.736 52.726 46.725 52.934 46.725 L 53.168 46.725 L 53.142 46.884 L 53.117 47.044 L 53.242 46.955 C 53.423 46.828 53.651 46.715 53.801 46.679 C 54.122 46.601 54.39 46.673 54.627 46.902 Z M 71.224 46.687 C 71.519 46.75 71.747 46.866 71.833 46.998 C 71.969 47.206 71.962 47.368 71.78 48.207 C 71.684 48.654 71.605 49.056 71.605 49.103 C 71.605 49.16 71.645 49.195 71.735 49.215 C 71.886 49.248 71.894 49.295 71.78 49.483 C 71.63 49.73 71.268 49.715 71.13 49.456 C 71.087 49.375 71.077 49.377 70.837 49.5 C 70.53 49.657 70.268 49.695 69.947 49.628 C 69.514 49.538 69.302 49.276 69.299 48.828 C 69.296 48.434 69.464 48.177 69.792 48.072 C 69.877 48.044 70.254 47.965 70.629 47.896 C 71.004 47.827 71.32 47.761 71.331 47.749 C 71.343 47.738 71.355 47.637 71.36 47.525 C 71.369 47.249 71.25 47.155 70.886 47.15 C 70.55 47.145 70.333 47.246 70.207 47.467 C 70.116 47.627 70.103 47.634 69.885 47.634 C 69.625 47.634 69.604 47.588 69.725 47.298 C 69.849 47.001 70.09 46.813 70.483 46.707 C 70.774 46.629 70.931 46.625 71.224 46.687 Z M 77.229 47.006 C 77.349 47.201 77.339 47.457 77.185 48.154 C 77.114 48.476 77.043 48.84 77.028 48.964 C 77.003 49.18 77.006 49.19 77.116 49.217 C 77.256 49.253 77.268 49.395 77.142 49.531 C 76.966 49.72 76.643 49.689 76.545 49.474 L 76.498 49.371 L 76.229 49.509 C 75.996 49.63 75.918 49.648 75.632 49.647 C 74.998 49.645 74.704 49.394 74.702 48.85 C 74.7 48.504 74.798 48.28 75.005 48.151 C 75.162 48.055 75.772 47.914 76.234 47.867 C 76.389 47.852 76.567 47.813 76.631 47.781 C 76.756 47.718 76.823 47.526 76.774 47.371 C 76.74 47.265 76.442 47.117 76.259 47.116 C 76.061 47.114 75.761 47.283 75.635 47.466 C 75.525 47.624 75.511 47.631 75.271 47.633 L 75.021 47.634 L 75.05 47.515 C 75.156 47.078 75.424 46.823 75.91 46.697 C 76.389 46.572 77.058 46.729 77.229 47.006 Z M 82.3 46.661 C 82.312 46.674 82.3 46.795 82.273 46.932 C 82.227 47.162 82.214 47.181 82.095 47.193 C 81.768 47.225 81.522 47.332 81.362 47.51 C 81.134 47.762 81.064 47.947 80.886 48.779 C 80.8 49.183 80.718 49.531 80.704 49.553 C 80.673 49.603 80.4 49.561 80.319 49.493 C 80.285 49.465 80.258 49.376 80.258 49.295 C 80.258 49.18 80.633 47.344 80.762 46.822 C 80.783 46.738 80.815 46.725 80.998 46.725 L 81.21 46.725 L 81.21 47.125 L 81.385 46.966 C 81.57 46.799 81.698 46.734 81.945 46.681 C 82.138 46.64 82.271 46.632 82.3 46.661 Z M 50.975 46.701 C 51.311 46.714 51.429 46.736 51.569 46.814 C 51.915 47.009 51.946 47.286 51.725 48.219 C 51.663 48.481 51.597 48.807 51.578 48.943 C 51.544 49.189 51.545 49.19 51.667 49.217 C 51.829 49.252 51.827 49.378 51.663 49.543 C 51.491 49.715 51.343 49.708 51.154 49.519 L 51.004 49.369 L 50.842 49.477 C 50.506 49.699 50.003 49.72 49.62 49.527 C 49.259 49.345 49.126 48.825 49.334 48.412 C 49.468 48.146 49.683 48.048 50.383 47.935 C 51.195 47.804 51.254 47.785 51.304 47.641 C 51.367 47.461 51.32 47.294 51.189 47.227 C 50.838 47.047 50.517 47.112 50.225 47.422 C 50.041 47.616 50.008 47.634 49.825 47.634 C 49.647 47.634 49.626 47.624 49.626 47.537 C 49.626 47.483 49.674 47.339 49.731 47.215 C 49.851 46.957 50.069 46.788 50.365 46.726 C 50.47 46.704 50.745 46.692 50.975 46.701 Z M 58.907 46.794 C 59.294 46.986 59.33 47.239 59.111 48.219 C 59.037 48.552 58.964 48.906 58.949 49.004 C 58.923 49.175 58.928 49.185 59.058 49.23 C 59.173 49.27 59.189 49.293 59.164 49.376 C 59.066 49.698 58.646 49.757 58.493 49.471 C 58.462 49.413 58.425 49.371 58.412 49.378 C 57.96 49.634 57.636 49.704 57.268 49.628 C 56.806 49.532 56.61 49.251 56.643 48.735 C 56.676 48.218 56.882 48.081 57.89 47.912 C 58.283 47.846 58.591 47.772 58.633 47.734 C 58.724 47.653 58.748 47.519 58.7 47.367 C 58.657 47.237 58.409 47.115 58.184 47.115 C 57.972 47.115 57.681 47.278 57.556 47.466 C 57.45 47.627 57.435 47.634 57.213 47.634 C 56.948 47.634 56.926 47.59 57.048 47.297 C 57.17 47.006 57.408 46.812 57.748 46.726 C 58.019 46.658 58.715 46.698 58.907 46.794 Z M 84.421 46.781 C 84.786 46.936 84.839 47.291 84.63 48.193 C 84.56 48.496 84.49 48.843 84.474 48.964 C 84.445 49.184 84.445 49.184 84.581 49.214 C 84.696 49.239 84.713 49.259 84.69 49.338 C 84.638 49.512 84.545 49.619 84.421 49.646 C 84.259 49.681 84.088 49.614 84 49.481 L 83.931 49.375 L 83.685 49.501 C 83.38 49.657 83.117 49.695 82.797 49.628 C 82.526 49.572 82.328 49.432 82.219 49.223 C 82.129 49.047 82.126 48.605 82.215 48.435 C 82.376 48.13 82.578 48.045 83.499 47.896 C 84.143 47.792 84.238 47.741 84.238 47.507 C 84.238 47.296 84.103 47.176 83.819 47.133 C 83.542 47.091 83.264 47.212 83.093 47.449 C 82.969 47.62 82.95 47.629 82.735 47.632 C 82.535 47.634 82.508 47.624 82.508 47.546 C 82.508 47.409 82.631 47.149 82.759 47.014 C 82.897 46.868 83.05 46.783 83.274 46.726 C 83.515 46.666 84.23 46.7 84.421 46.781 Z M 25.057 46.725 C 25.252 46.725 25.31 46.74 25.31 46.789 C 25.31 46.824 25.223 47.254 25.116 47.745 C 25.009 48.236 24.921 48.71 24.921 48.799 C 24.921 49.33 25.755 49.288 26.133 48.738 C 26.277 48.528 26.364 48.228 26.546 47.318 L 26.664 46.725 L 26.917 46.725 C 27.057 46.725 27.171 46.744 27.171 46.766 C 27.171 46.789 27.044 47.427 26.89 48.184 C 26.735 48.941 26.608 49.565 26.608 49.572 C 26.608 49.578 26.541 49.583 26.458 49.583 C 26.343 49.583 26.287 49.554 26.216 49.458 L 26.124 49.333 L 25.793 49.489 C 25.515 49.62 25.416 49.645 25.181 49.643 C 24.637 49.638 24.402 49.431 24.402 48.955 C 24.402 48.812 24.481 48.315 24.577 47.851 C 24.673 47.386 24.763 46.943 24.777 46.866 C 24.802 46.726 24.804 46.725 25.057 46.725 Z M 30.768 46.725 C 30.997 46.725 31.029 46.735 31.013 46.801 C 30.912 47.277 30.813 47.753 30.716 48.23 L 30.437 49.583 L 30.189 49.583 C 29.974 49.583 29.94 49.572 29.94 49.502 C 29.94 49.439 30.379 47.265 30.482 46.822 C 30.502 46.735 30.53 46.725 30.768 46.725 Z M 62.756 46.725 L 63.005 46.725 C 63.207 46.725 63.254 46.738 63.254 46.796 C 63.254 46.855 62.782 49.174 62.706 49.486 C 62.685 49.573 62.656 49.583 62.423 49.583 C 62.176 49.583 62.164 49.578 62.182 49.486 C 62.192 49.432 62.325 48.789 62.478 48.057 Z M 77.972 46.725 L 78.228 46.725 C 78.369 46.725 78.484 46.73 78.484 46.736 C 78.414 47.085 78.344 47.434 78.272 47.783 C 78.035 48.945 78.037 49.026 78.294 49.133 C 78.692 49.3 79.133 49.058 79.387 48.534 C 79.472 48.357 79.537 48.104 79.759 47.061 L 79.831 46.725 L 80.093 46.725 C 80.32 46.725 80.352 46.735 80.336 46.801 C 80.235 47.277 80.136 47.753 80.04 48.23 L 79.762 49.583 L 79.631 49.582 C 79.477 49.582 79.422 49.551 79.356 49.424 L 79.307 49.33 L 78.949 49.489 C 78.651 49.622 78.546 49.647 78.311 49.645 C 77.858 49.639 77.607 49.453 77.551 49.081 C 77.524 48.899 77.664 48.077 77.902 47.033 Z M 85.414 46.725 L 85.67 46.725 C 85.81 46.725 85.926 46.732 85.926 46.741 C 85.926 46.749 85.838 47.188 85.731 47.716 C 85.511 48.802 85.501 48.922 85.623 49.053 C 85.916 49.368 86.567 49.108 86.846 48.564 C 86.896 48.466 87.267 46.864 87.267 46.745 C 87.267 46.734 87.386 46.725 87.532 46.725 C 87.783 46.725 87.795 46.73 87.777 46.822 C 87.679 47.3 87.581 47.777 87.483 48.254 L 87.209 49.587 L 87.055 49.574 C 86.938 49.565 86.879 49.529 86.815 49.43 L 86.729 49.298 L 86.522 49.438 C 86.17 49.675 85.643 49.729 85.317 49.56 C 85.166 49.482 85.029 49.278 84.991 49.073 C 84.968 48.951 85.133 48.012 85.369 46.931 Z M 15.997 47.228 C 15.789 47.096 15.396 47.111 15.169 47.26 C 15.038 47.345 14.862 47.572 14.801 47.732 L 14.756 47.851 L 16.279 47.851 L 16.25 47.667 C 16.216 47.456 16.135 47.316 15.997 47.228 Z M 34.765 47.597 C 34.705 47.707 34.656 47.81 34.656 47.825 C 34.656 47.84 34.992 47.848 35.402 47.841 L 36.148 47.829 L 36.134 47.678 C 36.113 47.468 36.017 47.3 35.877 47.23 C 35.47 47.025 34.99 47.183 34.765 47.597 Z M 44.19 47.175 C 43.941 47.288 43.718 47.533 43.567 47.86 C 43.232 48.586 43.403 49.093 44.011 49.177 C 44.245 49.209 44.553 49.088 44.773 48.877 C 45.244 48.425 45.302 47.579 44.883 47.259 C 44.702 47.122 44.391 47.084 44.19 47.175 Z M 23.565 48.201 C 23.419 48.229 23.272 48.256 23.125 48.282 C 22.888 48.324 22.608 48.383 22.504 48.411 C 21.847 48.592 22.063 49.271 22.747 49.177 C 23.128 49.125 23.359 48.902 23.494 48.455 C 23.537 48.313 23.569 48.199 23.565 48.201 Z M 51.217 48.221 C 51.211 48.216 50.949 48.256 50.636 48.309 C 50.026 48.413 49.88 48.476 49.799 48.674 C 49.639 49.06 50.164 49.333 50.642 49.112 C 50.885 48.999 51.002 48.856 51.124 48.52 C 51.182 48.36 51.224 48.225 51.217 48.221 Z M 40.064 48.323 C 39.485 48.44 39.372 48.489 39.304 48.653 C 39.228 48.835 39.287 49.027 39.446 49.111 C 39.594 49.191 40.009 49.181 40.177 49.094 C 40.443 48.956 40.669 48.6 40.67 48.316 C 40.67 48.221 40.559 48.222 40.064 48.323 Z M 58.425 48.245 C 58.357 48.247 58.164 48.273 57.998 48.304 C 57.315 48.429 57.138 48.54 57.162 48.827 C 57.182 49.061 57.342 49.171 57.665 49.169 C 58.124 49.166 58.479 48.864 58.528 48.436 C 58.549 48.244 58.548 48.241 58.425 48.245 Z M 70.606 48.326 C 70.12 48.408 70.028 48.441 69.903 48.579 C 69.789 48.705 69.82 48.966 69.962 49.071 C 70.096 49.171 70.337 49.213 70.546 49.174 C 70.854 49.116 71.215 48.655 71.215 48.319 C 71.215 48.225 71.202 48.226 70.606 48.326 Z M 75.845 48.355 C 75.43 48.443 75.308 48.507 75.239 48.675 C 75.191 48.789 75.193 48.832 75.252 48.956 C 75.402 49.27 75.97 49.267 76.32 48.95 C 76.479 48.807 76.624 48.506 76.624 48.319 C 76.624 48.212 76.491 48.218 75.845 48.355 Z M 83.525 48.304 C 82.842 48.429 82.665 48.54 82.689 48.827 C 82.726 49.273 83.44 49.313 83.822 48.89 C 83.939 48.761 84.109 48.385 84.109 48.254 C 84.109 48.226 83.816 48.251 83.525 48.304 Z" fill="rgb(110, 98, 158)"></path></g></svg>