<svg xmlns="http://www.w3.org/2000/svg" width="116.25" height="90" fill="none"><g transform="translate(26.25 25.75)"><path d="M 18.039 13.804 C 18.039 14.586 18.125 15.221 18.273 15.686 C 18.444 16.151 18.656 16.658 18.954 17.208 C 19.061 17.377 19.103 17.546 19.103 17.694 C 19.103 17.905 18.975 18.117 18.699 18.328 L 17.359 19.216 C 17.167 19.343 16.976 19.406 16.806 19.406 C 16.593 19.406 16.38 19.3 16.167 19.11 C 15.87 18.793 15.614 18.455 15.402 18.117 C 15.189 17.757 14.976 17.356 14.742 16.869 C 13.083 18.814 10.998 19.787 8.488 19.787 C 6.701 19.787 5.276 19.279 4.233 18.265 C 3.191 17.25 2.659 15.897 2.659 14.206 C 2.659 12.409 3.297 10.95 4.595 9.851 C 5.893 8.752 7.616 8.202 9.807 8.202 C 10.53 8.202 11.275 8.266 12.062 8.371 C 12.849 8.477 13.657 8.646 14.508 8.836 L 14.508 7.293 C 14.508 5.687 14.168 4.566 13.508 3.911 C 12.828 3.256 11.679 2.938 10.041 2.938 C 9.296 2.938 8.53 3.023 7.743 3.213 C 6.956 3.403 6.19 3.636 5.446 3.932 C 5.105 4.08 4.85 4.165 4.701 4.207 C 4.552 4.249 4.446 4.27 4.361 4.27 C 4.063 4.27 3.914 4.059 3.914 3.615 L 3.914 2.579 C 3.914 2.241 3.957 1.987 4.063 1.839 C 4.169 1.691 4.361 1.543 4.659 1.395 C 5.403 1.015 6.297 0.698 7.339 0.444 C 8.382 0.169 9.488 0.042 10.658 0.042 C 13.189 0.042 15.04 0.613 16.231 1.755 C 17.401 2.896 17.997 4.63 17.997 6.955 L 17.997 13.804 Z M 9.403 17.017 C 10.105 17.017 10.828 16.891 11.594 16.637 C 12.36 16.383 13.04 15.918 13.615 15.284 C 13.955 14.882 14.21 14.438 14.338 13.931 C 14.466 13.424 14.551 12.811 14.551 12.092 L 14.551 11.204 C 13.934 11.056 13.274 10.929 12.594 10.845 C 11.913 10.76 11.253 10.718 10.594 10.718 C 9.169 10.718 8.126 10.993 7.424 11.563 C 6.722 12.134 6.382 12.937 6.382 13.994 C 6.382 14.988 6.637 15.728 7.169 16.235 C 7.68 16.764 8.424 17.017 9.403 17.017 Z M 26.485 19.3 C 26.102 19.3 25.847 19.237 25.676 19.089 C 25.506 18.962 25.357 18.666 25.23 18.265 L 20.231 1.924 C 20.103 1.501 20.039 1.226 20.039 1.078 C 20.039 0.74 20.209 0.55 20.55 0.55 L 22.634 0.55 C 23.039 0.55 23.315 0.613 23.464 0.761 C 23.634 0.888 23.762 1.184 23.889 1.585 L 27.463 15.58 L 30.782 1.585 C 30.888 1.163 31.016 0.888 31.186 0.761 C 31.356 0.634 31.654 0.55 32.037 0.55 L 33.739 0.55 C 34.143 0.55 34.42 0.613 34.59 0.761 C 34.76 0.888 34.909 1.184 34.994 1.585 L 38.355 15.749 L 42.035 1.585 C 42.163 1.163 42.312 0.888 42.461 0.761 C 42.631 0.634 42.907 0.55 43.29 0.55 L 45.269 0.55 C 45.609 0.55 45.801 0.719 45.801 1.078 C 45.801 1.184 45.779 1.29 45.758 1.416 C 45.737 1.543 45.694 1.712 45.609 1.945 L 40.482 18.286 C 40.355 18.709 40.206 18.983 40.036 19.11 C 39.865 19.237 39.589 19.322 39.227 19.322 L 37.398 19.322 C 36.994 19.322 36.717 19.258 36.547 19.11 C 36.377 18.962 36.228 18.687 36.143 18.265 L 32.845 4.63 L 29.569 18.244 C 29.463 18.666 29.335 18.941 29.165 19.089 C 28.995 19.237 28.697 19.3 28.314 19.3 Z M 53.82 19.871 C 52.714 19.871 51.608 19.744 50.544 19.491 C 49.481 19.237 48.651 18.962 48.098 18.645 C 47.758 18.455 47.524 18.244 47.439 18.053 C 47.353 17.863 47.311 17.652 47.311 17.461 L 47.311 16.383 C 47.311 15.939 47.481 15.728 47.8 15.728 C 47.928 15.728 48.055 15.749 48.183 15.791 C 48.311 15.834 48.502 15.918 48.715 16.003 C 49.438 16.32 50.225 16.573 51.055 16.743 C 51.906 16.912 52.736 16.996 53.586 16.996 C 54.927 16.996 55.969 16.764 56.692 16.299 C 57.416 15.834 57.798 15.157 57.798 14.29 C 57.798 13.698 57.607 13.212 57.224 12.811 C 56.841 12.409 56.118 12.05 55.076 11.711 L 51.991 10.76 C 50.438 10.274 49.289 9.555 48.587 8.604 C 47.885 7.674 47.524 6.638 47.524 5.539 C 47.524 4.651 47.715 3.869 48.098 3.192 C 48.481 2.516 48.991 1.924 49.63 1.459 C 50.268 0.972 50.991 0.613 51.842 0.359 C 52.693 0.106 53.586 0 54.522 0 C 54.99 0 55.48 0.021 55.948 0.085 C 56.437 0.148 56.884 0.233 57.33 0.317 C 57.756 0.423 58.16 0.528 58.543 0.655 C 58.926 0.782 59.224 0.909 59.436 1.036 C 59.734 1.205 59.947 1.374 60.075 1.564 C 60.202 1.733 60.266 1.966 60.266 2.262 L 60.266 3.256 C 60.266 3.699 60.096 3.932 59.777 3.932 C 59.607 3.932 59.33 3.847 58.968 3.678 C 57.756 3.129 56.394 2.854 54.884 2.854 C 53.672 2.854 52.714 3.044 52.055 3.446 C 51.395 3.847 51.055 4.46 51.055 5.327 C 51.055 5.919 51.268 6.426 51.693 6.828 C 52.119 7.23 52.906 7.631 54.033 7.991 L 57.054 8.942 C 58.586 9.428 59.692 10.105 60.351 10.971 C 61.011 11.838 61.33 12.832 61.33 13.931 C 61.33 14.84 61.138 15.664 60.777 16.383 C 60.394 17.102 59.883 17.736 59.224 18.244 C 58.564 18.772 57.777 19.153 56.862 19.427 C 55.905 19.723 54.905 19.871 53.82 19.871 Z" fill="rgb(110, 98, 158)"></path><path d="M 57.827 30.136 C 50.828 35.273 40.659 38 31.916 38 C 19.663 38 8.622 33.497 0.283 26.014 C -0.376 25.422 0.22 24.619 1.007 25.084 C 10.026 30.284 21.152 33.434 32.661 33.434 C 40.425 33.434 48.956 31.827 56.805 28.529 C 57.975 28.001 58.975 29.29 57.827 30.136 Z" fill="rgb(110, 98, 158)"></path><path d="M 60.78 26.828 C 59.886 25.686 54.866 26.278 52.589 26.553 C 51.909 26.638 51.802 26.046 52.419 25.602 C 56.419 22.811 62.992 23.615 63.758 24.545 C 64.524 25.496 63.545 32.028 59.801 35.157 C 59.227 35.643 58.673 35.389 58.929 34.755 C 59.78 32.662 61.673 27.948 60.78 26.828 Z" fill="rgb(110, 98, 158)"></path></g></svg>