<svg xmlns="http://www.w3.org/2000/svg" width="187" height="90" fill="none"><g transform="translate(32 28)"><path d="M 118.685 26.889 L 117.61 27.187 L 117.132 27.485 L 116.535 28.081 L 116.057 29.035 L 115.937 29.572 L 115.937 30.257 L 116.355 31.509 L 116.953 32.225 L 117.968 32.821 L 118.416 32.881 L 118.625 33 L 119.372 33 L 120.626 32.523 L 121.403 31.808 L 121.94 30.734 L 122 29.393 L 121.881 28.916 L 121.582 28.32 L 121.283 27.902 L 120.746 27.425 L 119.909 27.008 Z M 32.971 8.168 L 31.12 10.136 L 30.164 11.566 L 29.447 12.997 L 28.79 14.846 L 28.432 16.455 L 28.253 18.065 L 28.253 19.943 L 28.432 21.553 L 28.79 23.163 L 29.328 24.713 L 29.925 25.965 L 30.821 27.396 L 31.478 28.23 L 32.553 29.363 L 33.33 30.019 L 34.524 30.854 L 35.39 31.271 L 35.48 31.39 L 37.929 32.344 L 40.438 32.821 L 43.155 32.881 L 44.768 32.642 L 46.739 32.046 L 48.173 31.39 L 49.606 30.556 L 51.309 29.304 L 51.757 29.244 L 52.055 29.363 L 52.742 30.049 L 54.295 31.867 L 55.191 32.762 L 55.699 32.881 L 55.998 32.762 L 59.701 29.482 L 59.701 28.737 L 57.551 26.501 L 56.475 24.951 L 55.938 23.759 L 55.579 22.268 L 55.52 5.962 L 55.281 5.604 L 54.982 5.485 L 49.995 5.485 L 49.636 5.664 L 49.457 5.962 L 49.457 7.125 L 49.188 7.333 L 48.979 7.333 L 46.56 5.962 L 44.649 5.247 L 43.155 4.949 L 40.259 5.008 L 37.929 5.485 L 36.555 5.962 L 34.584 6.976 Z M 39.84 11.358 L 41.393 11.06 L 43.036 11.06 L 44.708 11.358 L 45.724 11.715 L 47.098 12.431 L 49.069 13.862 L 49.457 14.369 L 49.457 23.401 L 48.71 24.206 L 47.755 24.981 L 46.739 25.637 L 45.485 26.233 L 44.051 26.65 L 43.215 26.77 L 41.274 26.77 L 40.199 26.591 L 39.243 26.293 L 38.228 25.816 L 37.511 25.339 L 36.227 24.117 L 35.629 23.282 L 34.972 21.911 L 34.554 20.182 L 34.494 18.542 L 34.733 16.932 L 35.271 15.382 L 36.047 14.07 L 36.973 13.027 L 38.347 12.014 Z M 96.883 5.425 L 95.39 5.962 L 93.956 6.678 L 92.941 7.333 L 91.746 8.287 L 90.85 9.182 L 89.835 10.434 L 89.178 11.447 L 88.342 13.117 L 87.864 14.428 L 87.446 16.157 L 87.267 17.469 L 87.207 19.228 L 87.326 20.897 L 87.565 22.328 L 88.401 24.951 L 89.357 26.799 L 90.014 27.753 L 91.866 29.721 L 92.702 30.377 L 94.016 31.211 L 96.346 32.225 L 98.556 32.762 L 100.019 32.881 L 100.288 33 L 102.528 33 L 105.455 32.583 L 107.784 31.867 L 109.457 31.033 L 110.771 30.138 L 111.487 29.542 L 112.801 28.23 L 113.279 27.634 L 113.339 27.187 L 113.22 26.889 L 109.337 24.027 L 108.949 23.967 L 108.65 24.087 L 108.142 24.683 L 107.067 25.577 L 105.275 26.531 L 103.902 26.949 L 102.707 27.127 L 100.766 27.127 L 99.093 26.829 L 97.899 26.412 L 96.883 25.875 L 95.987 25.22 L 95.002 24.176 L 94.524 23.461 L 93.986 22.328 L 93.927 21.702 L 94.255 21.314 L 94.673 21.195 L 113.817 21.195 L 114.116 20.957 L 114.295 20.301 L 114.354 17.23 L 113.996 14.726 L 113.22 12.341 L 112.204 10.434 L 111.069 8.943 L 110.173 8.049 L 109.218 7.274 L 107.784 6.379 L 106.769 5.902 L 104.499 5.187 L 102.528 4.889 L 99.75 4.889 L 98.436 5.068 Z M 107.874 15.74 L 107.814 16.187 L 107.665 16.336 L 107.426 16.396 L 94.434 16.396 L 94.195 16.336 L 93.986 16.127 L 93.986 15.68 L 94.106 15.322 L 94.823 13.892 L 95.3 13.236 L 96.525 12.073 L 97.899 11.298 L 98.735 11 L 99.81 10.762 L 101.124 10.642 L 102.468 10.702 L 103.902 11 L 105.096 11.537 L 105.634 11.894 L 106.321 12.52 L 107.157 13.713 L 107.456 14.369 Z M 12.782 4.829 L 11.05 5.068 L 9.676 5.425 L 7.287 6.439 L 5.854 7.333 L 5.077 7.93 L 3.166 9.837 L 1.672 12.043 L 1.015 13.415 L 0.478 14.965 L 0.239 15.919 L 0 17.588 L 0 20.182 L 0.418 22.566 L 0.836 23.878 L 1.374 25.13 L 2.628 27.217 L 3.644 28.469 L 4.54 29.363 L 5.794 30.377 L 7.108 31.211 L 9.378 32.225 L 10.871 32.642 L 12.305 32.881 L 14.604 32.94 L 16.516 32.702 L 18.785 32.046 L 20.338 31.331 L 21.772 30.436 L 22.847 29.602 L 24.579 27.813 L 26.013 25.667 L 26.072 25.041 L 25.774 24.683 L 24.729 24.266 L 21.294 22.656 L 20.846 22.596 L 20.428 22.835 L 19.651 24.057 L 18.487 25.22 L 17.232 26.054 L 16.097 26.531 L 14.843 26.829 L 12.842 26.829 L 11.349 26.472 L 10.094 25.875 L 9.079 25.16 L 7.675 23.64 L 6.899 22.268 L 6.361 20.599 L 6.242 19.824 L 6.302 17.528 L 6.72 15.978 L 7.317 14.726 L 8.034 13.713 L 9.139 12.61 L 9.617 12.252 L 11.05 11.477 L 11.946 11.179 L 12.902 11 L 15.142 11.06 L 16.277 11.358 L 17.113 11.715 L 18.188 12.371 L 18.905 12.967 L 19.89 14.07 L 20.428 14.995 L 20.846 15.233 L 21.294 15.173 L 23.355 14.16 L 25.714 13.146 L 26.072 12.789 L 26.072 12.222 L 24.997 10.493 L 23.862 9.122 L 22.13 7.572 L 20.577 6.558 L 18.666 5.664 L 16.874 5.127 L 14.903 4.829 Z M 62.299 0.06 L 62.06 0.298 L 61.941 0.596 L 61.941 32.344 L 62.06 32.642 L 62.359 32.881 L 67.824 32.881 L 68.123 32.642 L 68.242 32.344 L 68.242 24.623 L 68.75 24.057 L 70.841 22.328 L 71.08 22.209 L 71.468 22.209 L 71.856 22.477 L 77.53 30.019 L 79.083 31.569 L 79.86 32.106 L 80.577 32.463 L 82.01 32.881 L 82.458 32.881 L 82.667 33 L 85.325 33 L 85.624 32.821 L 85.803 32.583 L 85.743 27.366 L 85.325 27.068 L 84.459 27.068 L 83.802 26.949 L 82.608 26.352 L 81.682 25.428 L 76.366 18.214 L 76.425 17.767 L 76.754 17.379 L 85.266 10.285 L 85.505 9.986 L 85.505 9.42 L 82.1 5.545 L 81.921 5.425 L 81.473 5.425 L 80.875 5.843 L 69.377 15.919 L 69.019 16.098 L 68.631 16.038 L 68.362 15.829 L 68.242 15.591 L 68.183 0.358 L 67.705 0 Z" fill="rgb(110, 98, 158)" stroke-width="0.73" stroke="rgb(110, 98, 158)" stroke-linejoin="round" stroke-dasharray=""></path></g></svg>