<svg xmlns="http://www.w3.org/2000/svg" width="152.5" height="90" fill="none"><path d="M 49.111 30 L 54.954 30 L 55.013 44.912 C 55.045 53.113 55.113 60.009 55.163 60.236 L 55.256 60.65 L 49.111 60.65 L 49.111 57.955 L 48.193 58.804 C 47.16 59.759 45.578 60.597 44.078 60.985 C 42.73 61.334 39.752 61.303 38.217 60.924 C 36.837 60.584 35.044 59.731 34.048 58.941 C 30.998 56.521 29.516 51.937 30.141 46.851 C 30.869 40.918 34.751 37.174 40.575 36.788 C 43.597 36.587 46.299 37.476 48.305 39.33 L 49.111 40.076 Z M 107.465 30 L 113.186 30 L 113.239 44.912 C 113.269 53.113 113.335 60.009 113.388 60.236 L 113.483 60.65 L 107.465 60.65 Z M 72.236 37.111 C 74.579 37.71 76.722 39.192 77.98 41.08 C 79.361 43.154 80.199 46.153 80.199 49.022 L 80.199 50.094 L 62.744 50.094 L 62.744 50.582 C 62.744 50.851 62.857 51.513 62.996 52.053 C 63.643 54.58 65.294 56.322 67.537 56.843 C 69.031 57.19 71.179 56.928 72.436 56.245 C 73.501 55.667 74.858 54.139 75.428 52.877 C 75.551 52.606 75.706 52.383 75.772 52.383 C 75.874 52.383 80.282 54.976 80.444 55.131 C 80.674 55.351 78.311 57.932 77.071 58.815 C 74.511 60.638 71.067 61.506 67.668 61.184 C 64.248 60.86 61.637 59.702 59.665 57.633 C 57.66 55.53 56.756 53.028 56.756 49.588 C 56.756 47.05 57.178 45.068 58.126 43.163 C 59.836 39.726 62.949 37.499 66.925 36.869 C 68.124 36.678 71.072 36.813 72.236 37.111 Z M 94.661 36.802 C 96.828 36.86 97.982 37.128 99.693 37.968 C 100.719 38.472 101.079 38.739 102.05 39.718 C 102.898 40.572 103.336 41.139 103.731 41.891 C 104.772 43.878 105.371 46.288 105.452 48.822 L 105.491 50.03 L 87.972 50.096 L 87.974 50.508 C 87.982 52.017 88.861 54.14 89.929 55.233 C 90.574 55.892 91.705 56.568 92.495 56.767 C 93.913 57.123 95.669 57.049 96.923 56.581 C 98.389 56.033 99.865 54.598 100.638 52.967 L 100.963 52.281 L 103.322 53.699 C 104.619 54.479 105.681 55.17 105.681 55.233 C 105.683 55.687 103.428 58.065 102.213 58.888 C 101.187 59.584 99.334 60.447 98.191 60.762 C 95.521 61.498 92.071 61.392 89.437 60.493 C 86.24 59.403 83.819 57.114 82.739 54.161 C 81.479 50.716 81.801 46.06 83.52 42.867 C 85.305 39.552 88.283 37.482 92.152 36.869 C 92.551 36.806 93.68 36.775 94.661 36.802 Z M 69.183 40.856 C 68.55 40.833 67.974 40.836 67.904 40.863 C 67.834 40.89 67.465 41.008 67.084 41.126 C 65.433 41.635 64.06 43.1 63.378 45.08 C 63.24 45.481 63.126 45.887 63.126 45.981 C 63.126 46.121 64.114 46.152 68.669 46.152 L 74.211 46.152 L 74.211 45.857 C 74.211 45.424 73.847 44.271 73.483 43.555 C 72.999 42.601 72.036 41.661 71.123 41.252 C 70.491 40.969 70.107 40.891 69.183 40.856 Z M 94.492 40.86 C 92.745 40.79 91.544 41.21 90.379 42.297 C 90.042 42.612 89.594 43.138 89.383 43.465 C 88.993 44.071 88.354 45.624 88.354 45.964 C 88.354 46.126 89.093 46.152 93.896 46.152 L 99.439 46.152 L 99.439 45.847 C 99.439 45.382 98.938 43.864 98.588 43.265 C 98.105 42.439 97.287 41.698 96.403 41.283 C 95.745 40.974 95.393 40.896 94.492 40.86 Z M 36.743 45.37 C 35.725 48.054 36.013 51.885 37.386 53.925 C 38.29 55.269 39.659 56.238 41.148 56.587 C 42.074 56.804 43.82 56.778 44.766 56.533 C 47.236 55.892 48.989 53.868 49.566 50.991 C 49.821 49.72 49.761 47.554 49.437 46.342 C 48.776 43.869 47.04 42.059 44.809 41.516 C 41.131 40.622 37.971 42.131 36.743 45.37 Z M 116.894 55.181 L 122.5 55.181 L 122.5 60.65 L 116.894 60.65 Z" fill="rgb(110, 98, 158)"></path></svg>