<svg xmlns="http://www.w3.org/2000/svg" width="217.5" height="90" fill="none"><path d="M 175.961 27.814 C 176.013 28.472 175.676 29.125 175.125 29.432 C 174.822 29.601 174.834 29.556 174.753 30.799 C 174.615 32.896 174.572 35.208 174.568 40.76 C 174.564 46.439 174.586 47.999 174.7 50.137 C 174.792 51.866 174.846 52.178 175.051 52.181 C 175.185 52.183 175.656 52.679 175.799 52.968 C 175.927 53.229 175.948 53.334 175.946 53.723 C 175.945 54.261 175.819 54.571 175.454 54.935 C 175.102 55.288 174.818 55.395 174.245 55.396 C 173.682 55.396 173.388 55.282 173.033 54.924 C 172.687 54.575 172.541 54.205 172.547 53.696 C 172.552 53.234 172.616 53.04 172.886 52.671 C 173.025 52.48 173.409 52.177 173.588 52.117 C 173.696 52.081 173.82 50.729 173.886 48.862 C 173.954 46.933 173.931 34 173.856 32.375 C 173.791 30.973 173.719 29.988 173.658 29.709 C 173.639 29.619 173.551 29.534 173.39 29.448 C 173.258 29.378 173.076 29.236 172.985 29.133 C 172.067 28.09 172.645 26.442 173.989 26.267 C 175.012 26.133 175.88 26.815 175.961 27.814 Z M 102.511 30.323 C 105.199 30.721 107.382 32.053 108.806 34.162 C 108.93 34.346 109.024 34.518 109.015 34.546 C 108.974 34.664 107.304 36.46 107.271 36.421 C 107.251 36.397 107.069 36.129 106.867 35.825 C 106.423 35.154 105.575 34.257 104.986 33.835 C 103.847 33.016 102.479 32.625 101.042 32.705 C 99.914 32.769 98.875 33.086 98.045 33.621 C 97.289 34.108 96.475 35.057 95.996 36.009 C 95.606 36.786 95.258 38.078 95.134 39.214 C 95.047 40.01 95.06 41.625 95.159 42.367 C 95.583 45.544 97.139 47.757 99.528 48.58 C 101.275 49.18 103.557 48.887 105.098 47.864 C 105.823 47.382 106.754 46.383 107.177 45.633 C 107.243 45.515 107.318 45.443 107.359 45.459 C 107.467 45.5 109.019 46.784 109.022 46.835 C 109.027 46.926 108.446 47.761 108.043 48.241 C 106.742 49.787 104.861 50.852 102.665 51.286 C 102.084 51.4 101.891 51.412 100.536 51.411 C 98.981 51.41 98.719 51.383 97.601 51.117 C 95.939 50.72 94.185 49.801 92.948 48.679 C 91.428 47.301 90.325 45.261 89.945 43.124 C 89.76 42.084 89.737 40.501 89.89 39.408 C 90.351 36.134 92.101 33.446 94.852 31.791 C 96.253 30.948 97.941 30.405 99.658 30.247 C 100.378 30.18 101.804 30.218 102.511 30.323 Z M 123.846 30.619 C 127.299 31.616 129.888 34.05 130.979 37.328 C 131.418 38.645 131.567 39.719 131.518 41.212 C 131.483 42.277 131.422 42.728 131.196 43.618 C 130.15 47.732 126.739 50.72 122.359 51.358 C 121.61 51.467 119.935 51.468 119.16 51.359 C 116.412 50.974 113.93 49.611 112.304 47.593 C 110.585 45.46 109.755 42.733 109.981 39.963 C 110.189 37.41 111.166 35.211 112.881 33.436 C 114.613 31.643 117.1 30.473 119.667 30.241 C 120.972 30.123 122.657 30.276 123.846 30.619 Z M 142.792 30.295 C 144.529 30.487 146.016 30.995 147.258 31.821 C 147.824 32.196 148.876 33.19 149.191 33.647 L 149.361 33.892 L 148.539 34.842 C 148.087 35.365 147.698 35.798 147.676 35.805 C 147.654 35.812 147.54 35.681 147.424 35.513 C 147.121 35.075 146.319 34.259 145.845 33.907 C 145.084 33.34 144.105 32.904 143.081 32.677 C 142.611 32.573 142.374 32.554 141.542 32.553 C 140.514 32.552 140.31 32.583 139.62 32.841 C 138.452 33.278 137.789 34.367 137.966 35.558 C 138.093 36.417 138.502 36.906 139.493 37.386 C 140.189 37.723 140.606 37.858 142.606 38.393 C 143.44 38.617 144.446 38.903 144.841 39.029 C 147.031 39.726 148.52 40.783 149.2 42.124 C 149.651 43.013 149.764 43.543 149.762 44.744 C 149.759 45.717 149.683 46.197 149.417 46.908 C 148.515 49.329 146.106 50.99 142.927 51.382 C 142.234 51.468 140.548 51.455 139.814 51.358 C 136.848 50.968 134.394 49.63 132.951 47.618 L 132.637 47.179 L 133.568 46.25 L 134.498 45.321 L 134.83 45.776 C 135.882 47.221 137.513 48.306 139.305 48.753 C 142.042 49.436 144.513 48.842 145.262 47.322 C 145.594 46.65 145.606 45.757 145.294 45.074 C 145.127 44.713 144.934 44.481 144.572 44.209 C 143.945 43.739 143.195 43.448 141.089 42.862 C 138.32 42.091 137.477 41.797 136.566 41.283 C 134.67 40.215 133.784 38.853 133.683 36.852 C 133.612 35.461 133.988 34.17 134.767 33.136 C 135.923 31.6 137.728 30.635 140.025 30.324 C 140.666 30.237 142.132 30.222 142.792 30.295 Z M 30.446 30.507 L 34.65 30.508 C 36.963 30.509 39.094 30.532 39.387 30.56 C 40.348 30.652 41.131 30.782 41.941 30.985 C 46.91 32.231 49.685 35.732 49.685 40.756 C 49.685 43.664 48.775 46.141 47.052 47.925 C 45.27 49.771 42.76 50.854 39.653 51.117 C 39.288 51.148 37.178 51.172 34.73 51.172 L 30.446 51.173 Z M 52.293 30.507 L 67.569 30.507 L 67.554 31.703 L 67.54 32.899 L 62.367 32.899 C 59.522 32.898 57.163 32.91 57.125 32.925 C 57.069 32.947 57.058 33.549 57.069 36.099 L 57.083 39.246 L 60.861 39.26 L 64.639 39.273 L 64.639 41.716 L 57.082 41.716 L 57.082 45.138 C 57.082 47.021 57.068 48.599 57.05 48.645 C 57.021 48.721 57.528 48.729 62.558 48.729 L 68.099 48.729 L 68.099 51.173 L 52.293 51.173 Z M 69.604 30.507 L 74.687 30.507 L 74.873 30.945 C 74.975 31.186 75.338 32.029 75.681 32.818 C 76.046 33.659 76.41 34.5 76.774 35.341 C 77.057 35.997 77.34 36.652 77.625 37.307 C 77.91 37.961 78.193 38.617 78.475 39.272 C 78.864 40.176 79.254 41.079 79.646 41.982 C 80.56 44.086 80.819 44.689 80.881 44.85 C 80.937 44.996 80.893 45.09 82.149 42.141 C 82.504 41.309 82.859 40.477 83.214 39.644 C 83.47 39.045 84.092 37.587 84.596 36.404 C 85.1 35.22 85.872 33.409 86.311 32.379 L 87.111 30.507 L 89.968 30.507 L 89.87 30.733 C 89.816 30.857 89.539 31.484 89.254 32.127 C 88.318 34.239 86.91 37.433 86.619 38.104 C 86.251 38.951 86.002 39.514 84.441 43.044 C 83.53 45.104 82.348 47.787 81.814 49.007 L 80.845 51.224 L 79.035 51.225 L 74.319 40.866 Z M 162.604 31.225 C 162.915 31.111 163.468 31.126 163.822 31.258 C 164.191 31.396 164.596 31.778 164.757 32.141 C 164.928 32.527 164.944 33.061 164.795 33.455 C 164.661 33.808 164.171 34.353 163.934 34.413 C 163.777 34.452 163.776 34.459 163.657 35.633 C 163.526 36.936 163.468 38.644 163.468 41.149 C 163.468 43.562 163.518 44.875 163.656 46.099 C 163.787 47.261 163.77 47.202 163.999 47.309 C 164.301 47.45 164.658 47.862 164.796 48.227 C 165.13 49.111 164.654 50.119 163.753 50.437 C 162.418 50.907 161.103 49.624 161.549 48.286 C 161.686 47.875 162.013 47.477 162.345 47.319 C 162.465 47.262 162.574 47.179 162.589 47.135 C 162.603 47.091 162.665 46.673 162.727 46.205 C 162.871 45.116 162.923 42.62 162.874 39.14 C 162.84 36.73 162.761 35.39 162.614 34.722 C 162.563 34.49 162.53 34.449 162.282 34.305 C 161.958 34.117 161.643 33.723 161.544 33.381 C 161.28 32.477 161.74 31.541 162.604 31.225 Z M 185.527 31.163 C 186.231 31.19 186.697 31.498 187.002 32.14 C 187.129 32.407 187.16 32.541 187.159 32.83 C 187.157 33.469 186.872 33.989 186.347 34.313 L 186.047 34.498 L 185.986 35.04 C 185.781 36.852 185.689 39.485 185.731 42.327 C 185.762 44.437 185.792 44.971 185.962 46.436 C 186.031 47.029 186.07 47.205 186.135 47.228 C 186.359 47.306 186.767 47.679 186.938 47.963 C 187.118 48.262 187.124 48.291 187.124 48.806 C 187.124 49.283 187.109 49.369 186.98 49.612 C 186.795 49.962 186.421 50.289 186.041 50.432 C 185.804 50.522 185.66 50.541 185.359 50.522 C 184.674 50.48 184.156 50.121 183.865 49.487 C 183.747 49.23 183.734 49.143 183.754 48.73 C 183.774 48.314 183.796 48.232 183.96 47.96 C 184.146 47.653 184.378 47.432 184.682 47.277 C 184.815 47.209 184.855 47.149 184.885 46.965 C 185.143 45.388 185.213 43.205 185.133 39.219 C 185.099 37.539 185.05 35.985 185.023 35.766 C 184.996 35.547 184.947 35.174 184.914 34.937 L 184.853 34.506 L 184.542 34.304 C 184.006 33.958 183.738 33.469 183.736 32.833 C 183.734 32.092 184.228 31.434 184.969 31.191 C 185.041 31.167 185.293 31.154 185.527 31.163 Z M 119.221 32.552 C 116.698 33.275 115.395 35.815 115.269 40.255 C 115.139 44.83 116.297 47.86 118.568 48.888 C 119.278 49.209 119.701 49.286 120.759 49.284 C 121.579 49.283 121.778 49.266 122.143 49.166 C 122.742 49.001 123.462 48.632 123.899 48.266 C 124.831 47.485 125.534 46.159 125.892 44.504 C 126.345 42.419 126.355 39.478 125.917 37.307 C 125.346 34.478 123.917 32.797 121.768 32.426 C 120.942 32.284 119.995 32.331 119.221 32.552 Z M 36.819 32.753 L 35.209 32.725 L 35.209 48.949 L 36.952 48.924 C 38.174 48.907 38.846 48.875 39.201 48.817 C 40.657 48.579 41.737 48.064 42.611 47.192 C 43.085 46.718 43.383 46.294 43.727 45.598 C 44.336 44.367 44.629 42.806 44.629 40.789 C 44.629 39.205 44.414 37.949 43.941 36.772 C 43.081 34.632 41.35 33.288 38.909 32.864 C 38.578 32.806 37.928 32.772 36.819 32.753 Z M 99.55 57.123 L 100.456 57.123 L 100.456 63.661 L 100.017 63.646 L 99.578 63.631 Z M 131.031 57.123 L 131.802 57.123 L 131.802 58.079 L 131.064 58.079 L 131.034 57.853 C 131.017 57.729 131.01 57.514 131.017 57.375 Z M 148.673 57.123 L 149.472 57.123 L 149.458 60.377 L 149.445 63.631 L 148.673 63.662 Z M 107.647 57.495 L 108.013 57.495 L 108.013 58.929 L 108.971 58.929 L 108.971 59.62 L 108.009 59.62 L 108.024 61.211 C 108.036 62.357 108.058 62.82 108.104 62.865 C 108.139 62.9 108.348 62.941 108.569 62.955 L 108.971 62.98 L 108.971 63.657 L 108.548 63.657 C 107.963 63.657 107.633 63.578 107.458 63.395 C 107.25 63.178 107.207 62.746 107.226 61.055 L 107.242 59.619 L 106.417 59.62 L 106.417 58.929 L 107.242 58.929 L 107.229 58.293 C 107.223 57.943 107.231 57.62 107.249 57.576 C 107.272 57.514 107.367 57.495 107.647 57.495 Z M 128.396 57.49 L 128.777 57.505 L 129.158 57.521 L 129.163 58.212 L 129.168 58.902 L 130.099 58.933 L 130.099 59.615 L 129.168 59.646 L 129.168 61.198 C 129.168 63.014 129.136 62.912 129.722 62.954 L 130.099 62.981 L 130.099 63.671 L 129.522 63.647 C 128.859 63.62 128.642 63.532 128.489 63.23 C 128.406 63.066 128.396 62.858 128.396 61.333 L 128.396 59.62 L 127.536 59.62 L 127.571 58.955 L 128.396 58.924 Z M 104.208 58.838 C 104.941 58.865 105.338 59.091 105.586 59.62 C 105.692 59.846 105.699 59.957 105.714 61.76 L 105.73 63.662 L 105.352 63.646 L 104.973 63.631 L 104.978 62.055 C 104.981 61.099 104.96 60.379 104.925 60.223 C 104.823 59.767 104.473 59.511 103.957 59.516 C 103.421 59.52 103.001 59.763 102.79 60.189 C 102.669 60.434 102.664 60.498 102.638 62.037 L 102.612 63.631 L 101.84 63.662 L 101.84 58.929 L 102.585 58.929 L 102.586 59.261 L 102.587 59.593 L 102.759 59.404 C 103.022 59.114 103.145 59.028 103.45 58.92 C 103.664 58.843 103.84 58.824 104.208 58.838 Z M 111.793 58.838 C 112.221 58.85 112.348 58.875 112.599 58.997 C 113.309 59.345 113.785 60.18 113.82 61.144 L 113.833 61.506 L 112.061 61.52 L 110.288 61.534 L 110.324 61.812 C 110.402 62.411 110.754 62.832 111.305 62.987 C 111.687 63.094 111.858 63.095 112.205 62.992 C 112.556 62.888 112.768 62.707 112.891 62.408 C 112.983 62.184 113.002 62.17 113.202 62.164 C 113.319 62.161 113.494 62.151 113.591 62.143 C 113.762 62.129 113.766 62.133 113.731 62.295 C 113.621 62.813 113.195 63.348 112.73 63.554 C 111.962 63.893 110.857 63.762 110.261 63.261 C 109.489 62.612 109.244 61.093 109.747 60.06 C 110.033 59.471 110.458 59.097 111.073 58.894 C 111.206 58.85 111.478 58.829 111.793 58.838 Z M 117.021 58.825 L 117.273 58.823 L 117.273 59.22 C 117.273 59.59 117.265 59.619 117.154 59.639 L 116.733 59.716 C 116.36 59.784 116.04 59.981 115.86 60.252 C 115.611 60.628 115.572 60.912 115.571 62.342 L 115.57 63.657 L 114.772 63.657 L 114.772 58.929 L 115.517 58.929 L 115.517 59.844 L 115.751 59.527 C 115.989 59.205 116.231 59.019 116.575 58.896 C 116.681 58.858 116.882 58.826 117.021 58.825 Z M 120.364 58.842 C 120.953 58.861 121.281 58.989 121.536 59.297 C 121.852 59.68 121.868 59.79 121.891 61.811 L 121.912 63.657 L 121.111 63.657 L 121.095 61.891 C 121.08 60.23 121.072 60.113 120.971 59.938 C 120.653 59.389 119.641 59.371 119.146 59.907 C 118.794 60.288 118.764 60.47 118.764 62.179 L 118.764 63.657 L 117.965 63.657 L 117.965 58.929 L 118.71 58.929 L 118.71 59.635 L 118.93 59.386 C 119.136 59.152 119.414 58.97 119.722 58.869 C 119.795 58.845 120.084 58.833 120.364 58.842 Z M 125.177 58.844 C 125.939 58.869 126.152 58.926 126.439 59.185 C 126.794 59.504 126.806 59.566 126.807 61.099 C 126.807 61.849 126.824 62.581 126.844 62.727 L 126.88 62.993 L 127.106 63.009 L 127.332 63.026 L 127.332 63.645 L 127.083 63.707 C 126.587 63.832 126.187 63.654 126.128 63.282 L 126.095 63.074 L 125.904 63.24 C 125.46 63.629 124.717 63.822 124.07 63.715 C 123.237 63.578 122.89 63.193 122.889 62.405 C 122.888 62.019 122.905 61.949 123.05 61.714 C 123.337 61.248 123.777 61.066 125.08 60.873 C 125.892 60.752 126.116 60.576 126.032 60.124 C 125.951 59.694 125.525 59.479 124.851 59.529 C 124.235 59.575 123.948 59.786 123.848 60.27 C 123.818 60.413 123.808 60.416 123.446 60.416 L 123.074 60.416 L 123.074 60.24 C 123.074 59.654 123.533 59.12 124.208 58.921 C 124.47 58.844 124.668 58.828 125.177 58.844 Z M 136.265 59.058 C 136.502 59.18 136.897 59.546 137.043 59.779 C 137.699 60.818 137.519 62.484 136.67 63.227 C 136.031 63.786 134.855 63.91 134.047 63.502 C 133.281 63.117 132.867 62.34 132.867 61.293 C 132.867 60.061 133.453 59.175 134.447 58.902 C 134.985 58.755 135.816 58.826 136.265 59.058 Z M 140.853 58.841 C 141.294 58.856 141.4 58.879 141.644 59.011 C 141.969 59.188 142.205 59.496 142.283 59.846 C 142.313 59.977 142.339 60.881 142.341 61.857 L 142.346 63.631 L 141.974 63.646 L 141.601 63.662 L 141.585 61.92 C 141.569 60.276 141.562 60.165 141.457 59.967 C 141.165 59.411 140.16 59.355 139.647 59.867 C 139.295 60.219 139.285 60.272 139.254 62.037 L 139.226 63.631 L 138.455 63.662 L 138.455 58.929 L 139.2 58.929 L 139.2 59.64 L 139.329 59.466 C 139.5 59.234 139.844 58.987 140.12 58.896 C 140.267 58.848 140.519 58.829 140.853 58.841 Z M 145.666 58.84 C 146.582 58.864 146.981 59.058 147.218 59.593 C 147.3 59.778 147.314 60.008 147.326 61.369 C 147.334 62.296 147.361 62.953 147.391 62.984 C 147.42 63.012 147.522 63.038 147.619 63.041 C 147.793 63.046 147.795 63.048 147.795 63.308 C 147.795 63.622 147.734 63.693 147.425 63.739 C 146.985 63.805 146.597 63.565 146.597 63.225 L 146.597 63.073 L 146.273 63.311 C 145.771 63.68 145.144 63.823 144.521 63.71 C 143.729 63.568 143.351 63.149 143.351 62.415 C 143.351 61.873 143.586 61.471 144.037 61.243 C 144.271 61.125 144.857 60.985 145.719 60.842 C 146.387 60.732 146.593 60.546 146.514 60.127 C 146.43 59.675 146.02 59.47 145.317 59.529 C 144.828 59.57 144.543 59.721 144.413 60.008 C 144.357 60.13 144.311 60.272 144.31 60.323 C 144.309 60.404 144.254 60.416 143.909 60.416 L 143.51 60.416 L 143.544 60.191 C 143.646 59.515 144.03 59.102 144.736 58.905 C 144.944 58.847 145.211 58.828 145.666 58.84 Z M 131.433 58.929 L 131.802 58.929 L 131.802 63.662 L 131.031 63.631 L 131.018 61.326 C 131.012 60.059 131.019 59.001 131.035 58.975 C 131.05 58.95 131.23 58.929 131.433 58.929 Z M 110.819 59.793 C 110.617 59.946 110.384 60.355 110.332 60.642 L 110.297 60.841 L 113.018 60.841 L 112.987 60.695 C 112.87 60.152 112.505 59.706 112.071 59.576 C 111.638 59.447 111.167 59.529 110.819 59.793 Z M 134.782 59.56 C 134.381 59.691 134.006 60.029 133.852 60.397 C 133.525 61.178 133.701 62.225 134.239 62.711 C 134.503 62.949 134.774 63.043 135.182 63.039 C 135.741 63.033 136.156 62.762 136.417 62.232 C 136.555 61.953 136.566 61.884 136.565 61.293 C 136.564 60.759 136.546 60.616 136.453 60.414 C 136.304 60.091 136.039 59.797 135.774 59.662 C 135.539 59.543 135.003 59.488 134.782 59.56 Z M 125.84 61.317 C 125.795 61.343 125.496 61.403 125.175 61.45 C 124.051 61.613 123.767 61.777 123.726 62.288 C 123.707 62.518 123.724 62.594 123.819 62.715 C 124.006 62.951 124.229 63.039 124.628 63.034 C 125.571 63.022 126.055 62.564 126.055 61.681 C 126.055 61.256 126.026 61.208 125.84 61.317 Z M 146.282 61.325 C 146.212 61.353 145.9 61.412 145.59 61.457 C 145.281 61.501 144.915 61.574 144.777 61.618 C 144.485 61.712 144.205 61.997 144.197 62.211 C 144.172 62.818 144.4 63.02 145.113 63.02 C 145.611 63.02 145.86 62.94 146.144 62.691 C 146.449 62.423 146.552 62.148 146.532 61.652 C 146.517 61.256 146.503 61.237 146.282 61.325 Z M 62.058 63.391 L 94.07 63.391 L 94.07 63.71 L 30 63.71 L 30.017 63.564 C 30.027 63.484 30.037 63.412 30.041 63.405 C 30.044 63.397 44.452 63.391 62.058 63.391 Z" fill="rgb(110, 98, 158)"></path></svg>