<svg xmlns="http://www.w3.org/2000/svg" width="185" height="90" fill="none"><path d="M 39.536 33.71 C 45.47 27.544 50.344 22.5 50.366 22.5 C 50.388 22.5 55.289 27.559 61.254 33.741 L 72.1 44.983 L 61.232 56.241 L 50.365 67.5 L 39.559 56.259 C 33.615 50.076 28.752 44.995 28.75 44.968 C 28.749 44.94 33.603 39.875 39.536 33.709 Z M 31.843 44.983 L 41.108 54.587 L 50.374 64.19 L 68.906 44.983 L 59.656 35.397 C 54.569 30.125 50.393 25.81 50.374 25.81 C 50.356 25.81 46.179 30.125 41.091 35.397 Z M 82.086 30.925 C 82.117 30.893 85.385 30.867 89.351 30.867 L 96.56 30.867 L 96.56 34.23 L 85.807 34.23 L 85.807 39.575 L 95.328 39.575 L 95.328 42.853 L 90.566 42.85 L 85.802 42.845 L 85.785 45.65 L 85.766 48.454 L 96.97 48.454 L 96.97 51.816 L 82.032 51.816 L 82.032 41.4 C 82.032 35.67 82.056 30.957 82.086 30.925 Z M 100.335 30.867 L 108.523 30.889 L 116.71 30.911 L 116.755 33.514 L 115.216 35.488 C 114.369 36.574 111.749 39.935 109.391 42.958 L 105.104 48.453 L 111.112 48.475 L 117.121 48.497 L 117.142 50.157 L 117.165 51.816 L 100.089 51.816 L 100.089 49.242 L 105.924 41.757 L 111.761 34.273 L 106.048 34.251 L 100.335 34.228 Z M 118.182 31.014 C 118.133 30.879 118.277 30.868 120.063 30.868 L 121.996 30.868 L 122.232 31.235 C 122.361 31.436 123.682 33.705 125.166 36.277 C 126.651 38.85 127.889 40.955 127.916 40.955 C 127.944 40.955 129.273 38.685 130.869 35.912 L 133.772 30.868 L 135.573 30.868 C 137.247 30.868 137.369 30.878 137.332 31.019 C 137.309 31.102 135.57 34.153 133.464 37.799 L 129.638 44.43 L 129.638 51.816 L 125.944 51.816 L 125.944 44.482 L 122.09 37.82 C 119.97 34.157 118.212 31.094 118.182 31.014 Z M 140.117 30.925 C 140.147 30.893 143.425 30.877 147.401 30.889 L 154.63 30.912 L 154.63 34.187 L 149.234 34.209 L 143.838 34.232 L 143.838 39.574 L 148.618 39.595 L 153.4 39.618 L 153.4 42.808 L 148.618 42.83 L 143.838 42.852 L 143.838 48.455 L 155 48.455 L 155 51.817 L 140.062 51.817 L 140.062 41.4 C 140.062 35.67 140.086 30.957 140.117 30.925 Z M 42.123 36.5 L 58.625 36.5 L 58.625 39.12 L 55.148 39.138 L 51.672 39.155 L 51.654 41.197 L 51.636 43.239 L 51.987 43.283 C 52.179 43.307 53.752 43.327 55.481 43.327 L 58.625 43.328 L 58.625 45.949 L 51.639 45.949 L 51.639 50.087 L 58.625 50.087 L 58.625 52.707 L 42.123 52.707 L 42.123 50.087 L 49.11 50.087 L 49.11 45.949 L 45.966 45.948 C 44.236 45.948 42.665 45.928 42.472 45.904 L 42.123 45.86 L 42.123 43.328 L 49.11 43.328 L 49.11 39.121 L 42.123 39.121 Z M 105.424 54.747 L 105.999 54.747 L 105.999 60.351 L 105.424 60.351 Z M 110.858 54.852 C 110.912 54.794 111.034 54.747 111.129 54.747 C 111.224 54.747 111.346 54.794 111.399 54.851 C 111.453 54.907 111.499 55.035 111.499 55.136 C 111.499 55.234 111.453 55.363 111.399 55.42 C 111.346 55.477 111.224 55.523 111.128 55.523 C 111.034 55.523 110.912 55.477 110.858 55.419 C 110.804 55.363 110.76 55.234 110.76 55.136 C 110.76 55.035 110.804 54.907 110.858 54.851 Z M 141.347 54.905 C 141.66 54.54 142.153 54.873 141.959 55.318 C 141.856 55.558 141.536 55.594 141.339 55.387 C 141.175 55.215 141.176 55.102 141.346 54.905 Z M 107.723 55.523 L 108.296 55.523 L 108.296 56.385 L 108.871 56.385 C 109.43 56.385 109.446 56.391 109.446 56.601 C 109.446 56.81 109.43 56.817 108.871 56.817 L 108.296 56.817 L 108.296 58.134 C 108.296 59.583 108.35 59.775 108.775 59.874 C 108.903 59.903 109.114 59.885 109.244 59.832 C 109.443 59.752 109.499 59.762 109.587 59.888 C 109.738 60.104 109.722 60.144 109.439 60.268 C 109.102 60.414 108.54 60.398 108.236 60.233 C 107.823 60.008 107.723 59.593 107.723 58.108 L 107.723 56.816 L 107.394 56.816 C 107.099 56.816 107.066 56.795 107.066 56.601 C 107.066 56.406 107.099 56.385 107.394 56.385 L 107.723 56.385 Z M 83.422 56.413 C 84.105 56.212 85.041 56.458 85.352 56.923 C 85.475 57.106 85.472 57.127 85.308 57.269 C 85.139 57.414 85.124 57.411 84.897 57.211 C 83.953 56.376 82.614 57.041 82.608 58.349 C 82.605 58.818 82.763 59.206 83.087 59.524 C 83.287 59.722 83.437 59.784 83.791 59.815 C 84.351 59.864 84.58 59.805 84.889 59.532 C 85.129 59.321 85.136 59.32 85.321 59.477 L 85.509 59.637 L 85.288 59.87 C 84.967 60.206 84.527 60.37 83.95 60.367 C 83.387 60.364 82.958 60.179 82.577 59.779 C 82.18 59.363 82.076 59.071 82.075 58.368 C 82.073 57.816 82.105 57.662 82.299 57.318 C 82.566 56.84 82.909 56.563 83.422 56.413 Z M 87.68 56.419 C 88.168 56.282 88.181 56.281 88.671 56.391 C 89.254 56.523 89.685 56.882 89.954 57.46 C 90.15 57.88 90.173 58.015 90.138 58.498 C 90.061 59.491 89.467 60.199 88.585 60.345 C 87.679 60.496 86.924 60.121 86.529 59.326 C 85.948 58.157 86.504 56.752 87.68 56.419 Z M 92.794 56.423 C 93.422 56.21 94.165 56.38 94.564 56.829 C 94.869 57.173 94.917 57.464 94.917 58.934 L 94.917 60.35 L 94.44 60.35 L 94.412 58.989 C 94.383 57.521 94.33 57.325 93.891 57.023 C 93.608 56.828 92.941 56.841 92.605 57.046 C 92.1 57.356 92.007 57.653 91.976 59.079 L 91.948 60.35 L 91.471 60.35 L 91.471 56.385 L 91.716 56.385 C 91.946 56.385 91.963 56.407 91.963 56.703 L 91.963 57.021 L 92.199 56.783 C 92.329 56.653 92.597 56.491 92.794 56.424 Z M 97.339 56.351 C 97.662 56.271 98.65 56.445 98.924 56.63 C 99.086 56.74 98.876 57.189 98.7 57.11 C 98.008 56.798 97.597 56.745 97.144 56.911 C 96.693 57.076 96.583 57.549 96.928 57.834 C 97.041 57.927 97.382 58.051 97.687 58.109 C 98.484 58.261 98.902 58.472 99.066 58.805 C 99.338 59.357 99.013 60.054 98.381 60.273 C 97.967 60.417 97.138 60.394 96.659 60.228 C 96.146 60.048 96.021 59.911 96.146 59.666 C 96.255 59.454 96.258 59.454 96.555 59.615 C 97.434 60.092 98.611 59.903 98.611 59.283 C 98.611 58.96 98.335 58.788 97.548 58.618 C 97.14 58.531 96.709 58.391 96.59 58.309 C 96.302 58.111 96.129 57.662 96.196 57.286 C 96.254 56.962 96.684 56.502 96.993 56.433 C 97.093 56.41 97.249 56.374 97.34 56.351 Z M 114.575 56.376 C 114.895 56.29 115.489 56.365 115.83 56.532 C 116.427 56.828 116.586 57.36 116.587 59.079 L 116.587 60.35 L 116.012 60.35 L 116.012 59.055 C 116.012 57.63 115.935 57.281 115.564 57.026 C 115.266 56.821 114.547 56.829 114.202 57.041 C 113.717 57.34 113.632 57.644 113.632 59.077 L 113.632 60.35 L 113.058 60.35 L 113.058 56.385 L 113.304 56.385 C 113.532 56.385 113.55 56.407 113.55 56.702 L 113.55 57.019 L 113.734 56.842 C 113.964 56.622 114.255 56.461 114.575 56.376 Z M 119.295 56.376 C 119.88 56.246 120.577 56.436 120.999 56.841 L 121.183 57.019 L 121.183 56.697 C 121.183 56.385 121.192 56.375 121.45 56.401 L 121.717 56.428 L 121.716 58.411 C 121.715 59.81 121.684 60.487 121.609 60.712 C 121.348 61.488 120.838 61.811 119.865 61.814 C 119.19 61.816 118.549 61.651 118.233 61.394 C 118.039 61.235 118.038 61.225 118.176 61.004 L 118.319 60.775 L 118.531 60.951 C 118.966 61.31 119.994 61.427 120.557 61.18 C 120.909 61.025 121.099 60.664 121.161 60.032 L 121.208 59.56 L 120.82 59.848 C 120.451 60.12 120.395 60.135 119.714 60.135 C 119.068 60.135 118.962 60.111 118.654 59.897 C 118.161 59.554 117.894 59.088 117.841 58.472 C 117.788 57.856 117.909 57.427 118.249 57.019 C 118.533 56.682 118.876 56.47 119.295 56.376 Z M 126.164 56.378 C 126.638 56.275 127.576 56.411 127.897 56.63 C 128.06 56.74 127.85 57.189 127.673 57.11 C 126.877 56.751 126.239 56.743 125.89 57.087 C 125.453 57.518 125.771 57.939 126.661 58.109 C 127.458 58.261 127.877 58.472 128.04 58.805 C 128.312 59.357 127.987 60.054 127.355 60.273 C 126.941 60.417 126.112 60.394 125.632 60.228 C 125.12 60.049 124.995 59.911 125.12 59.666 C 125.229 59.454 125.232 59.454 125.529 59.615 C 126.413 60.095 127.586 59.902 127.586 59.276 C 127.586 58.963 127.252 58.751 126.572 58.628 C 125.745 58.48 125.361 58.245 125.212 57.798 C 125.107 57.48 125.111 57.418 125.253 57.116 C 125.444 56.714 125.746 56.468 126.164 56.378 Z M 130.222 56.424 C 131.255 56.073 132.344 56.73 132.586 57.85 C 132.748 58.597 132.875 58.54 131.065 58.54 L 129.456 58.54 L 129.509 58.777 C 129.582 59.099 129.803 59.406 130.129 59.639 C 130.534 59.93 131.386 59.917 131.811 59.613 C 132.103 59.406 132.127 59.401 132.274 59.541 C 132.423 59.682 132.423 59.696 132.286 59.86 C 131.894 60.324 130.76 60.521 130.116 60.238 C 129.371 59.911 128.963 59.228 128.967 58.312 C 128.97 57.443 129.479 56.676 130.222 56.424 Z M 135.326 56.399 C 135.787 56.291 135.83 56.31 135.861 56.629 C 135.884 56.888 135.871 56.902 135.605 56.902 C 135.246 56.902 134.807 57.211 134.624 57.593 C 134.507 57.837 134.48 58.125 134.48 59.122 L 134.48 60.35 L 133.905 60.35 L 133.905 56.385 L 134.192 56.385 C 134.465 56.385 134.48 56.401 134.48 56.678 L 134.48 56.971 L 134.73 56.726 C 134.869 56.59 135.136 56.443 135.326 56.399 Z M 144.617 56.393 C 145.285 56.22 146.203 56.478 146.502 56.923 C 146.625 57.106 146.622 57.127 146.458 57.268 C 146.288 57.413 146.273 57.411 146.047 57.211 C 145.341 56.587 144.31 56.787 143.925 57.622 C 143.616 58.293 143.737 59.032 144.236 59.524 C 144.436 59.722 144.586 59.784 144.94 59.814 C 145.501 59.864 145.729 59.805 146.038 59.531 C 146.278 59.32 146.285 59.319 146.47 59.476 L 146.658 59.637 L 146.437 59.869 C 146.117 60.206 145.675 60.37 145.099 60.367 C 144.536 60.363 144.107 60.179 143.726 59.779 C 143.328 59.363 143.225 59.071 143.224 58.368 C 143.222 57.819 143.256 57.661 143.442 57.327 C 143.697 56.872 144.147 56.514 144.617 56.393 Z M 148.885 56.379 C 149.241 56.288 149.284 56.289 149.757 56.395 C 150.512 56.565 151.142 57.418 151.142 58.27 L 151.142 58.54 L 148.023 58.54 L 148.023 58.742 C 148.023 59.032 148.344 59.487 148.679 59.673 C 149.124 59.922 149.887 59.892 150.282 59.612 L 150.592 59.389 L 150.758 59.564 C 150.965 59.781 150.876 59.917 150.356 60.181 C 149.798 60.465 148.982 60.44 148.42 60.121 C 146.913 59.269 147.22 56.805 148.885 56.379 Z M 153.008 56.389 C 153.495 56.262 154.516 56.417 154.813 56.662 C 154.89 56.727 154.882 56.792 154.784 56.951 C 154.663 57.145 154.642 57.15 154.419 57.028 C 154.29 56.958 153.97 56.879 153.709 56.853 C 152.96 56.778 152.449 57.152 152.624 57.647 C 152.696 57.847 153.037 57.995 153.972 58.229 C 154.732 58.421 155 58.68 155 59.227 C 155 59.446 154.943 59.708 154.871 59.816 C 154.484 60.397 153.2 60.564 152.329 60.145 C 151.921 59.948 151.882 59.907 151.959 59.754 C 152.094 59.489 152.166 59.477 152.549 59.656 C 153.323 60.015 154.174 59.933 154.418 59.476 C 154.526 59.274 154.525 59.227 154.403 59.031 C 154.3 58.867 154.146 58.787 153.792 58.71 C 152.771 58.49 152.473 58.371 152.257 58.102 C 151.757 57.478 152.134 56.616 153.008 56.389 Z M 100.335 56.385 L 100.828 56.385 L 100.828 57.571 C 100.829 58.946 100.903 59.309 101.247 59.612 C 101.565 59.894 102.286 59.923 102.681 59.67 C 103.123 59.388 103.208 59.059 103.208 57.644 L 103.208 56.385 L 103.783 56.385 L 103.783 60.35 L 103.487 60.35 C 103.198 60.35 103.191 60.343 103.222 60.06 L 103.255 59.769 L 102.962 60.016 C 102.418 60.475 101.416 60.494 100.868 60.053 C 100.397 59.678 100.335 59.414 100.335 57.816 Z M 110.842 56.385 L 111.415 56.385 L 111.415 60.35 L 110.842 60.35 Z M 136.535 56.449 C 136.534 56.414 136.653 56.386 136.799 56.386 L 137.066 56.386 L 137.715 57.959 C 138.073 58.824 138.389 59.562 138.418 59.597 C 138.447 59.633 138.78 58.925 139.158 58.024 L 139.847 56.385 L 140.123 56.385 C 140.275 56.385 140.385 56.414 140.367 56.449 C 140.35 56.485 139.971 57.379 139.527 58.437 L 138.718 60.359 L 138.428 60.333 L 138.139 60.307 L 137.338 58.411 C 136.898 57.368 136.536 56.485 136.535 56.449 Z M 141.375 56.385 L 141.867 56.385 L 141.867 60.35 L 141.375 60.35 Z M 86.888 58.242 C 86.849 58.886 87.055 59.379 87.476 59.652 C 87.857 59.9 88.596 59.901 88.973 59.657 C 89.548 59.283 89.761 58.23 89.397 57.553 C 89.055 56.922 88.279 56.664 87.646 56.975 C 87.158 57.215 86.927 57.601 86.888 58.242 Z M 118.409 58.366 C 118.467 59.219 118.945 59.661 119.808 59.661 C 120.551 59.661 121.093 59.153 121.163 58.39 C 121.259 57.332 120.248 56.556 119.27 56.937 C 118.628 57.186 118.359 57.634 118.409 58.366 Z M 129.518 57.915 L 129.463 58.109 L 130.781 58.109 C 132.01 58.109 132.1 58.098 132.1 57.949 C 132.1 57.742 131.789 57.265 131.514 57.052 C 131.174 56.787 130.649 56.768 130.214 57.005 C 129.864 57.194 129.639 57.489 129.518 57.915 Z M 148.052 57.85 L 148.003 58.109 L 150.638 58.109 L 150.567 57.85 C 150.454 57.433 150.182 57.104 149.829 56.955 C 149.389 56.77 149.12 56.779 148.706 56.995 C 148.33 57.191 148.128 57.454 148.052 57.85 Z" fill="rgb(110, 98, 158)"></path></svg>