<svg xmlns="http://www.w3.org/2000/svg" width="221" height="90" fill="none"><path d="M 40.67 27.32 C 48.598 28.733 55.846 36.771 56.478 44.849 C 56.628 46.766 56.594 46.969 56.021 47.579 C 55.284 48.363 54.2 48.436 53.362 47.757 C 52.864 47.353 52.731 46.881 52.542 44.822 C 52.304 42.243 51.463 40.107 49.647 37.468 C 48.449 35.726 45.92 33.535 43.889 32.477 C 42.17 31.581 38.985 30.659 37.614 30.659 C 36.096 30.659 35.238 28.542 36.318 27.462 C 36.947 26.833 37.782 26.806 40.67 27.32 Z M 41.963 35.114 C 45.307 36.688 47.932 39.797 49.245 43.737 C 50.212 46.642 49.798 47.971 47.926 47.971 C 46.837 47.971 46.339 47.414 45.932 45.741 C 45.489 43.922 44.46 41.999 43.199 40.63 C 41.888 39.208 39.287 37.85 37.873 37.85 C 36.56 37.85 35.785 37.114 35.785 35.867 C 35.785 35.223 35.963 34.821 36.384 34.515 C 37.294 33.855 39.875 34.132 41.963 35.114 Z M 130.606 39.448 C 130.606 41.103 128.65 42.11 127.059 41.273 C 126.252 40.848 126.087 40.53 126.082 39.392 C 126.079 38.714 126.261 38.233 126.661 37.861 C 128.037 36.578 130.606 37.612 130.606 39.448 Z M 180.946 37.317 L 184.941 37.317 L 184.941 57.027 L 180.946 57.027 Z M 74.73 39.356 C 75.829 40.116 77.069 42.311 77.069 43.496 L 77.069 44.242 L 75.063 44.242 C 73.387 44.242 73.033 44.166 72.908 43.776 C 72.184 41.51 70.42 40.745 68.127 41.703 C 66.614 42.335 66.045 43.945 66.051 47.572 C 66.056 50.783 66.365 51.864 67.612 53.032 C 68.223 53.605 68.571 53.698 70.099 53.698 C 71.076 53.698 72.265 53.534 72.741 53.333 C 73.578 52.98 73.607 52.916 73.607 51.402 L 73.607 49.836 L 70.144 49.836 L 70.144 46.906 L 77.069 46.906 L 77.069 55.356 L 75.494 56.064 C 73.358 57.022 71.237 57.379 68.621 57.22 C 65.304 57.019 63.66 55.837 62.238 52.632 C 61.855 51.768 61.764 50.812 61.76 47.572 L 61.754 43.577 L 62.654 41.917 C 63.643 40.095 64.765 39.093 66.647 38.357 C 69.105 37.396 72.504 37.816 74.73 39.356 Z M 100.406 37.85 C 104.791 37.85 107.481 39.999 108.633 44.424 C 109.462 47.604 108.903 51.874 107.358 54.174 C 105.179 57.415 100.476 58.513 96.695 56.663 C 93.849 55.271 92.55 52.754 92.32 48.186 C 92.083 43.473 93.549 40.343 96.754 38.716 C 98.216 37.974 98.738 37.85 100.406 37.85 Z M 113.693 38.485 C 115.349 37.702 118.749 37.598 120.385 38.28 C 122.61 39.208 123.947 40.842 123.947 42.634 L 123.947 43.443 L 121.949 43.443 C 120.153 43.443 119.952 43.392 119.952 42.929 C 119.952 42.084 118.584 41.313 117.086 41.313 C 115.48 41.313 114.358 42.165 114.358 43.384 C 114.358 44.588 115.293 45.22 118.187 45.972 C 121.257 46.769 121.933 47.091 123.046 48.282 C 125.839 51.272 124.288 55.95 120.098 57.168 C 118.109 57.746 115.51 57.592 113.691 56.788 C 111.478 55.809 110.457 54.546 110.309 52.603 L 110.23 51.567 L 112.294 51.489 C 113.983 51.426 114.358 51.484 114.358 51.81 C 114.358 53.206 115.51 54.097 117.314 54.097 C 119.385 54.097 120.525 52.958 120.11 51.304 C 119.871 50.354 119.006 49.89 116.093 49.151 C 114.679 48.792 113.201 48.33 112.808 48.125 C 110.482 46.91 109.485 44.093 110.51 41.637 C 111.087 40.258 112.131 39.223 113.693 38.485 Z M 79.733 38.383 L 91.452 38.383 L 91.452 41.845 L 83.728 41.845 L 83.728 45.841 L 90.678 45.841 L 90.599 47.505 L 90.52 49.17 L 83.728 49.319 L 83.728 53.565 L 91.452 53.565 L 91.452 57.027 L 79.733 57.027 Z M 37.966 41.512 C 38.186 41.769 41.021 46.451 44.267 51.917 C 50.097 61.736 50.629 62.852 49.848 63.633 C 49.661 63.82 48.765 63.952 47.692 63.952 C 45.605 63.952 46.211 64.358 40.643 59.235 C 39.017 57.738 37.375 56.436 36.994 56.34 C 36.08 56.111 35.203 56.742 30.858 60.755 L 27.397 63.952 L 25.474 63.952 C 23.47 63.952 23 63.673 23 62.482 C 23 61.981 35.128 41.557 35.606 41.253 C 36.18 40.887 37.561 41.039 37.966 41.512 Z M 99.443 41.501 C 97.373 42.257 96.253 45.581 96.802 49.343 C 97.287 52.667 98.702 54.243 100.995 54.009 C 103.436 53.761 104.658 51.35 104.45 47.198 C 104.309 44.395 103.61 42.637 102.324 41.853 C 101.476 41.337 100.289 41.191 99.443 41.501 Z M 142.349 44.09 C 142.981 44.755 143.421 44.967 143.359 44.575 C 143.342 44.466 143.342 44.046 143.359 43.643 C 143.39 42.922 143.418 42.911 145.122 42.911 L 146.853 42.911 L 146.844 48.97 C 146.831 58.372 146.37 60.361 143.844 61.923 C 142.764 62.591 142.26 62.712 140.097 62.825 C 136.852 62.995 135.213 62.606 133.803 61.33 C 132.921 60.532 132.696 60.128 132.562 59.092 L 132.398 57.826 L 134.565 57.826 C 136.533 57.826 136.732 57.874 136.732 58.344 C 136.732 59.13 137.758 59.691 139.198 59.691 C 141.375 59.691 142.362 58.665 142.718 56.03 L 142.908 54.633 L 141.486 55.59 C 140.132 56.501 139.974 56.542 138.171 56.451 C 135.803 56.331 134.492 55.519 133.388 53.49 C 132.421 51.714 132.168 48.486 132.838 46.468 C 133.503 44.468 135.06 43.011 136.955 42.616 C 139.032 42.183 141.068 42.739 142.349 44.09 Z M 162.038 45.219 C 162.601 46.395 162.665 46.963 162.778 51.767 L 162.902 57.027 L 158.893 57.027 L 158.799 52.554 C 158.699 47.755 158.542 47.155 157.142 46.238 C 156.612 45.891 156.362 45.88 155.481 46.168 C 154.664 46.435 154.317 46.759 153.845 47.695 C 153.301 48.773 153.246 49.262 153.246 52.955 L 153.246 57.027 L 149.25 57.027 L 149.25 42.911 L 152.979 42.911 L 152.988 43.91 C 152.997 44.884 153.008 44.896 153.458 44.376 C 154.178 43.543 154.758 43.146 155.84 42.743 C 158.223 41.857 160.952 42.947 162.038 45.219 Z M 175.028 43.017 C 176.23 43.645 177.17 44.84 177.462 46.107 C 177.613 46.766 177.74 48.894 177.744 50.835 C 177.748 53.005 177.853 54.364 178.016 54.364 C 178.163 54.364 178.283 54.963 178.283 55.696 L 178.283 57.027 L 176.436 57.027 C 174.878 57.027 174.565 56.951 174.434 56.538 C 174.29 56.081 174.178 56.1 172.781 56.804 C 168.43 58.999 163.651 56.154 164.697 51.992 C 165.286 49.649 166.588 48.912 170.95 48.448 L 174.038 48.121 L 173.875 47.313 C 173.633 46.115 172.847 45.574 171.35 45.574 C 169.714 45.574 169.243 45.764 168.947 46.543 C 168.728 47.117 168.553 47.173 166.935 47.173 L 165.163 47.173 L 165.344 46.043 C 165.625 44.288 167.09 43.036 169.36 42.611 C 170.86 42.33 174.166 42.567 175.028 43.017 Z M 126.344 42.911 L 130.339 42.911 L 130.339 57.027 L 126.344 57.027 Z M 141.275 46.115 C 140.511 45.706 138.797 45.783 138.121 46.256 C 136.177 47.618 136.289 51.843 138.296 52.881 C 139.797 53.657 141.371 53.285 142.148 51.969 C 142.717 51.007 142.741 48.233 142.189 47.167 C 141.968 46.739 141.557 46.266 141.275 46.115 Z M 197.859 47.709 C 197.859 48.193 197.698 48.394 197.26 48.456 C 196.781 48.524 196.661 48.412 196.661 47.901 C 196.661 47.549 196.745 47.177 196.848 47.074 C 197.243 46.679 197.859 47.066 197.859 47.709 Z M 194.157 50.393 C 194.738 50.939 194.796 51.208 194.796 53.329 C 194.796 54.613 194.916 55.738 195.063 55.829 C 195.209 55.919 195.329 56.226 195.329 56.51 C 195.329 57.134 194.482 57.212 194.001 56.633 C 193.712 56.284 193.608 56.284 193.11 56.633 C 192.278 57.216 190.477 57.134 189.639 56.475 C 188.769 55.791 188.676 54.358 189.452 53.582 C 190.017 53.017 191.58 52.503 192.74 52.501 C 193.668 52.499 193.949 51.85 193.322 51.158 C 192.567 50.322 190.535 50.627 190.535 51.576 C 190.535 51.815 190.276 51.967 189.869 51.967 C 189.11 51.967 189.113 51.974 189.467 51.04 C 189.613 50.657 190.122 50.168 190.599 49.954 C 191.741 49.439 193.353 49.638 194.157 50.393 Z M 196.661 49.836 L 197.993 49.836 L 197.993 57.027 L 196.661 57.027 Z M 174.089 50.901 L 173.19 50.924 C 171.538 50.965 169.155 51.607 168.786 52.111 C 168.273 52.813 168.339 53.234 169.082 53.976 C 169.826 54.72 170.914 54.822 172.232 54.272 C 173.37 53.796 173.696 53.358 173.91 52.02 Z M 193.531 53.332 C 193.421 53.35 192.832 53.447 192.223 53.546 C 190.86 53.769 190.268 54.23 190.268 55.069 C 190.268 56.318 192.452 56.424 193.368 55.219 C 193.558 54.968 193.718 54.434 193.723 54.031 C 193.727 53.628 193.641 53.313 193.531 53.332 Z M 187.385 55.429 C 188.088 55.429 188.164 55.509 188.089 56.162 C 188.024 56.727 187.845 56.912 187.306 56.975 C 186.562 57.061 186.17 56.54 186.443 55.829 C 186.532 55.598 186.93 55.429 187.385 55.429 Z" fill="rgb(110, 98, 158)"></path></svg>