<svg xmlns="http://www.w3.org/2000/svg" width="101" height="90" fill="none"><path d="M 62.161 22.242 C 67.615 24.979 72.599 30.423 74.648 35.884 C 76.3 40.285 76.387 40.786 76.371 45.741 C 76.357 50.047 76.309 50.483 75.621 52.575 C 72.978 60.607 68.476 65.85 61.358 69.186 C 59.319 70.141 54.774 71.5 53.616 71.5 C 53.145 71.5 53.124 71.117 53.124 62.401 L 53.124 53.302 L 54.204 54.278 C 55.78 55.702 56.855 56.078 59.336 56.074 C 61.165 56.07 61.722 55.954 63.187 55.268 C 66.92 53.522 68.622 50.471 68.629 45.516 C 68.635 41.68 67.659 38.968 65.543 36.936 C 63.604 35.075 62.35 34.569 59.695 34.574 C 57.016 34.58 55.471 35.21 53.72 37.012 L 52.598 38.166 L 52.595 37.156 C 52.587 35 52.544 34.964 50.005 34.964 L 47.736 34.963 L 47.818 53.229 L 47.899 71.494 L 46.635 71.337 C 44.783 71.107 40.11 69.512 38.142 68.439 C 30.087 64.047 24.977 55.908 24.551 46.792 C 24.34 42.279 25.216 37.961 27.127 34.09 C 30.853 26.544 38.503 20.947 46.74 19.742 C 51.742 19.01 57.622 19.963 62.161 22.242 Z M 41.567 24.06 C 39.986 23.242 37.973 23.786 37.225 25.232 C 35.39 28.78 40.672 31.562 42.706 28.119 C 43.539 26.709 43.004 24.803 41.567 24.06 Z M 42.742 32.992 L 37.09 32.843 L 37.09 54.678 L 42.845 54.678 L 42.793 43.835 Z M 62.447 41.869 C 63.396 44.139 63.186 48.133 62.007 50.244 C 60.563 52.829 56.293 53.164 54.462 50.836 C 53.559 49.688 53.321 48.391 53.424 45.166 C 53.514 42.314 53.564 42.082 54.307 41.01 C 54.774 40.335 55.52 39.68 56.146 39.396 C 58.744 38.216 61.348 39.237 62.447 41.869 Z" fill="rgb(110, 98, 158)"></path></svg>