<svg xmlns="http://www.w3.org/2000/svg" width="226.25" height="90" fill="none"><g transform="translate(30 28.75)"><path d="M 19.902 1.559 L 1.037 1.559 C 0.465 1.559 0 1.996 0 2.536 L 0 20.298 C 0 20.837 0.465 21.274 1.037 21.274 L 19.902 21.274 C 20.475 21.274 20.939 20.838 20.939 20.298 L 20.939 2.535 C 20.939 1.996 20.475 1.559 19.902 1.559 Z" fill="rgb(110, 98, 158)"></path><path d="M 3.042 9.362 C 3.147 9.306 3.309 9.61 3.543 10.048 C 4.179 11.233 5.347 13.485 9.005 14.212 C 11.761 14.518 13.974 13.777 15.647 11.991 C 14.628 12.143 14.095 12.138 14.049 11.976 C 13.98 11.733 15.015 11.358 15.921 10.947 C 16.629 10.625 17.263 10.291 17.49 10.361 C 17.717 10.43 17.722 11.033 17.797 11.818 C 17.889 12.796 17.972 13.843 17.744 13.951 C 17.592 14.024 17.344 13.643 17 12.81 C 14.703 15.464 11.814 16.409 8.336 15.648 C 4.996 14.728 3.456 11.821 3.058 10.303 C 2.915 9.756 2.937 9.417 3.042 9.362 Z" fill="rgb(255,255,255)"></path><path d="M 56.98 21.84 C 57.151 21.75 57.413 22.244 57.796 22.957 C 58.832 24.888 60.736 28.561 66.698 29.745 C 71.189 30.242 74.797 29.036 77.523 26.125 C 75.862 26.373 74.994 26.365 74.919 26.101 C 74.806 25.705 76.492 25.093 77.969 24.423 C 79.125 23.899 80.157 23.354 80.527 23.467 C 80.897 23.581 80.906 24.564 81.027 25.843 C 81.178 27.438 81.312 29.143 80.941 29.32 C 80.694 29.438 80.29 28.818 79.728 27.46 C 75.983 31.785 71.277 33.327 65.607 32.084 C 60.163 30.586 57.653 25.847 57.005 23.374 C 56.772 22.483 56.808 21.93 56.979 21.84 Z" fill="rgb(110, 98, 158)"></path><path d="M 67.867 12.965 C 67.914 8.193 71.584 4.67 76.722 4.67 C 79.276 4.67 81.105 5.36 82.421 6.584 C 82.949 6.981 83.171 7.468 83.171 8.239 C 83.171 9.367 82.193 10.258 80.996 10.258 C 80.959 10.258 79.838 8.39 76.992 8.39 C 74.596 8.39 72.266 10.258 72.223 12.965 C 72.283 14.749 73.09 16.096 74.518 17 C 75.873 17.858 78.105 17.876 79.62 17 C 80.542 16.467 80.975 15.693 80.996 15.693 C 82.193 15.693 83.171 16.584 83.171 17.712 C 83.171 18.484 82.949 18.97 82.421 19.368 C 81.105 20.591 79.276 21.28 76.722 21.28 C 71.551 21.28 67.86 17.507 67.86 12.965 Z M 31.213 19.162 L 31.213 2.346 C 31.213 1.036 32.314 0 33.705 0 C 35.096 0 36.196 1.035 36.196 2.345 L 36.196 17.243 L 45.417 17.243 C 46.679 17.243 47.682 18.187 47.682 19.375 C 47.682 20.563 46.679 21.508 45.417 21.508 L 33.705 21.508 C 32.314 21.508 31.213 20.472 31.213 19.162 Z M 90.423 21.812 C 87.155 21.812 84.47 20.045 84.47 16.816 L 84.47 16.755 C 84.47 13.191 87.349 11.546 91.459 11.546 C 93.205 11.546 94.468 11.82 95.697 12.216 L 95.697 11.941 C 95.697 10.023 94.435 8.956 91.976 8.956 C 90.617 8.956 89.517 9.139 88.579 9.413 C 88.288 9.504 88.094 9.535 87.867 9.535 C 86.735 9.535 85.829 8.712 85.829 7.647 C 85.829 6.823 86.379 6.123 87.155 5.849 C 88.708 5.3 90.391 4.996 92.688 4.996 C 95.373 4.996 97.315 5.666 98.544 6.823 C 99.838 8.043 100.421 9.839 100.421 12.033 L 100.421 19.466 C 100.421 20.715 99.353 21.69 98.027 21.69 C 96.603 21.69 95.664 20.746 95.664 19.771 L 95.664 19.74 C 94.468 20.989 92.817 21.812 90.423 21.812 Z M 91.912 18.613 C 94.209 18.613 95.762 17.425 95.762 15.75 L 95.762 14.927 C 94.92 14.561 93.82 14.318 92.623 14.318 C 90.52 14.318 89.226 15.11 89.226 16.572 L 89.226 16.633 C 89.226 17.882 90.326 18.613 91.912 18.613 Z M 108.736 21.781 C 105.727 21.781 103.688 20.654 103.688 16.877 L 103.688 9.139 L 103.527 9.139 C 102.971 9.142 102.437 8.935 102.042 8.563 C 101.647 8.192 101.425 7.686 101.424 7.159 C 101.425 6.631 101.647 6.126 102.042 5.754 C 102.437 5.383 102.971 5.175 103.527 5.179 L 103.688 5.179 L 103.688 3.138 C 103.688 1.858 104.789 0.823 106.148 0.823 C 107.507 0.823 108.607 1.858 108.607 3.138 L 108.607 5.179 L 110.775 5.179 C 111.939 5.179 112.878 6.062 112.878 7.159 C 112.876 7.686 112.654 8.192 112.259 8.563 C 111.865 8.935 111.331 9.142 110.775 9.139 L 108.607 9.139 L 108.607 16.115 C 108.607 17.182 109.092 17.699 110.192 17.699 C 110.354 17.699 110.677 17.669 110.775 17.669 C 111.875 17.669 112.813 18.522 112.813 19.588 C 112.813 20.41 112.23 21.081 111.551 21.325 C 110.645 21.66 109.804 21.781 108.736 21.781 Z M 118.184 12.064 L 125.593 12.064 C 125.302 9.992 124.008 8.59 121.937 8.59 C 119.899 8.59 118.572 9.962 118.184 12.064 Z M 128.44 19.893 C 126.919 21.111 124.946 21.873 122.422 21.873 C 117.213 21.873 113.363 18.43 113.363 13.434 L 113.363 13.373 C 113.363 8.712 116.89 4.874 121.937 4.874 C 127.728 4.874 130.285 9.352 130.285 12.734 C 130.285 14.074 129.282 14.957 127.987 14.957 L 118.249 14.957 C 118.734 17.059 120.287 18.156 122.487 18.156 C 123.846 18.156 124.978 17.76 125.981 17.059 C 126.337 16.816 126.661 16.694 127.178 16.694 C 128.278 16.694 129.087 17.486 129.087 18.522 C 129.087 19.131 128.796 19.588 128.44 19.893 Z M 51.551 20.167 C 49.321 18.631 47.941 16.197 47.941 13.434 L 47.941 13.373 C 47.941 8.682 51.953 4.874 57.356 4.874 C 62.727 4.874 66.707 8.621 66.707 13.313 L 66.707 13.373 C 66.707 16.255 65.194 18.803 62.774 20.34 C 61.853 19.018 60.448 18.068 58.83 17.674 C 60.748 17.096 61.853 15.385 61.853 13.434 L 61.853 13.373 C 61.853 10.967 60.009 8.865 57.291 8.865 C 54.476 8.865 52.794 10.906 52.794 13.313 L 52.794 13.373 C 52.794 15.262 53.93 16.963 55.731 17.608 C 54.051 17.937 52.56 18.849 51.551 20.167 Z" fill="rgb(110, 98, 158)"></path><path d="M 130.766 19.406 C 130.766 18.491 131.22 17.699 132.061 17.06 L 138.499 12.094 C 141.314 9.931 142.414 8.743 142.414 6.976 C 142.414 5.179 141.153 4.204 139.373 4.204 C 137.949 4.204 136.946 4.783 135.684 6.062 C 135.361 6.397 134.779 6.732 134.002 6.732 C 132.74 6.732 131.737 5.788 131.737 4.6 C 131.737 4.082 131.963 3.533 132.32 3.138 C 134.131 1.158 136.267 0 139.696 0 C 144.388 0 147.494 2.59 147.494 6.58 L 147.494 6.641 C 147.494 10.206 145.553 11.972 141.54 14.897 L 137.852 17.578 L 145.746 17.578 C 146.944 17.578 147.914 18.491 147.914 19.619 C 147.914 20.746 146.944 21.629 145.746 21.629 L 133.452 21.629 C 131.899 21.629 130.766 20.806 130.766 19.406 Z M 165 7.433 L 165 19.497 C 165 20.777 163.9 21.812 162.541 21.812 C 161.182 21.812 160.082 20.777 160.082 19.497 L 160.082 19.314 C 158.95 20.685 157.494 21.933 155.003 21.933 C 151.281 21.933 149.114 19.619 149.114 15.871 L 149.114 7.433 C 149.114 6.154 150.214 5.118 151.573 5.118 C 152.932 5.118 154.032 6.153 154.032 7.433 L 154.032 14.409 C 154.032 16.603 155.132 17.73 157.009 17.73 C 158.885 17.73 160.082 16.603 160.082 14.409 L 160.082 7.433 C 160.082 6.153 161.182 5.118 162.541 5.118 C 163.9 5.118 165 6.153 165 7.433 Z" fill="rgb(110, 98, 158)"></path></g></svg>