<svg xmlns="http://www.w3.org/2000/svg" width="223.75" height="90" fill="none"><g transform="translate(22.5 28.75)"><path d="M 13.852 1.852 C 8.653 3.053 4.609 6.773 3.107 11.753 C 2.616 13.423 2.53 14.272 2.645 16.733 C 2.732 18.374 2.905 19.955 3.021 20.248 C 3.31 20.951 3.974 20.776 4.696 19.809 C 5.158 19.165 5.273 18.549 5.303 16.001 C 5.331 13.335 5.447 12.779 6.169 11.167 C 6.949 9.41 8.913 7.184 10.704 6.012 C 12.812 4.606 17.174 3.903 20.264 4.489 C 21.535 4.723 22.835 3.786 22.344 2.995 C 21.593 1.735 17.029 1.12 13.852 1.852 Z" fill="rgb(110, 98, 158)"></path><path d="M 25.709 4.353 C 19.412 6.873 16.321 8.865 12.104 13.141 C 9.158 16.159 5.576 20.67 5.865 20.992 C 5.952 21.08 7.05 20.26 8.292 19.176 C 9.534 18.092 11.498 16.627 12.682 15.954 C 14.791 14.665 20.423 12.409 20.712 12.673 C 20.914 12.878 19.73 16.481 18.979 18.004 C 18.054 19.879 15.773 23.189 13.837 25.445 C 11.007 28.784 12.018 28.55 16.35 24.829 C 22.503 19.586 27.268 12.614 29.204 6.082 C 30.157 2.801 29.926 2.684 25.709 4.353 Z" fill="rgb(110, 98, 158)"></path><path d="M 29.166 11.123 C 28.877 11.62 28.762 12.821 28.733 15.604 C 28.704 18.856 28.589 19.676 28.011 21.17 C 26.682 24.685 24.285 27.058 21.021 28.113 C 19.577 28.581 18.681 28.669 16.659 28.552 C 14.464 28.435 14.031 28.493 13.424 28.991 C 13.02 29.314 12.702 29.724 12.702 29.929 C 12.702 31.071 17.699 31.657 20.732 30.866 C 25.151 29.724 27.751 27.614 29.715 23.631 C 31.506 19.998 31.91 15.721 30.784 11.943 C 30.35 10.449 29.802 10.156 29.166 11.123 Z M 12.702 17.948 C 9.814 20.145 7.503 22.752 1.929 30.192 C -0.931 34 -0.671 34.264 3.113 31.511 C 10.998 25.798 13.136 23.836 15.591 20.028 C 16.775 18.182 17.006 17.303 16.399 16.688 C 15.764 16.044 14.869 16.337 12.702 17.948 Z M 47.539 15.076 C 46.266 15.076 45.155 14.854 44.203 14.411 C 43.265 13.954 42.487 13.361 41.87 12.631 C 41.254 11.888 40.791 11.087 40.482 10.226 C 40.187 9.366 40.039 8.538 40.039 7.743 L 40.039 7.313 C 40.039 6.426 40.193 5.553 40.502 4.693 C 40.823 3.819 41.299 3.031 41.928 2.327 C 42.558 1.623 43.342 1.062 44.28 0.645 C 45.219 0.215 46.305 0 47.539 0 C 48.773 0 49.859 0.215 50.797 0.645 C 51.735 1.062 52.52 1.623 53.149 2.327 C 53.779 3.031 54.255 3.819 54.576 4.693 C 54.897 5.553 55.058 6.426 55.058 7.313 L 55.058 7.743 C 55.058 8.538 54.904 9.366 54.595 10.226 C 54.287 11.087 53.824 11.888 53.207 12.631 C 52.59 13.361 51.806 13.954 50.855 14.411 C 49.917 14.854 48.811 15.076 47.539 15.076 Z M 47.539 12.084 C 48.207 12.084 48.805 11.967 49.332 11.732 C 49.872 11.497 50.328 11.171 50.701 10.754 C 51.086 10.338 51.381 9.845 51.568 9.307 C 51.761 8.76 51.858 8.173 51.858 7.548 C 51.858 6.883 51.755 6.277 51.549 5.729 C 51.356 5.169 51.067 4.686 50.681 4.282 C 50.309 3.865 49.859 3.546 49.332 3.324 C 48.805 3.102 48.207 2.992 47.539 2.992 C 46.871 2.992 46.273 3.102 45.746 3.324 C 45.227 3.54 44.76 3.867 44.377 4.282 C 44.004 4.686 43.721 5.169 43.529 5.729 C 43.336 6.277 43.239 6.883 43.239 7.548 C 43.239 8.173 43.336 8.76 43.529 9.307 C 43.721 9.855 44.004 10.337 44.377 10.754 C 44.763 11.172 45.228 11.504 45.746 11.732 C 46.273 11.967 46.871 12.084 47.539 12.084 Z M 57.454 14.704 L 57.454 0.313 L 60.616 0.313 L 60.616 14.704 Z M 65.995 14.704 L 61.869 8.564 L 65.339 8.564 L 69.658 14.704 Z M 59.767 10.129 L 59.767 7.606 L 63.238 7.606 C 63.7 7.606 64.099 7.515 64.433 7.332 C 64.78 7.137 65.044 6.87 65.224 6.531 C 65.416 6.179 65.513 5.775 65.513 5.318 C 65.513 4.862 65.416 4.465 65.224 4.126 C 65.05 3.781 64.773 3.5 64.433 3.324 C 64.099 3.129 63.7 3.031 63.238 3.031 L 59.767 3.031 L 59.767 0.313 L 62.987 0.313 C 64.157 0.313 65.172 0.495 66.033 0.86 C 66.894 1.212 67.556 1.74 68.019 2.444 C 68.482 3.148 68.713 4.035 68.713 5.103 L 68.713 5.416 C 68.713 6.472 68.475 7.352 68 8.056 C 67.537 8.747 66.875 9.268 66.014 9.62 C 65.166 9.959 64.157 10.129 62.987 10.129 Z M 71.576 14.704 L 71.576 0.43 L 74.738 0.43 L 74.738 14.704 Z M 77.939 14.704 L 77.939 0.313 L 81.101 0.313 L 81.101 14.704 Z M 86.48 14.704 L 82.354 8.564 L 85.824 8.564 L 90.143 14.704 Z M 80.252 10.129 L 80.252 7.606 L 83.723 7.606 C 84.185 7.606 84.584 7.515 84.918 7.332 C 85.265 7.137 85.529 6.87 85.708 6.531 C 85.901 6.179 85.998 5.775 85.998 5.318 C 85.998 4.862 85.901 4.465 85.708 4.126 C 85.535 3.78 85.258 3.5 84.918 3.324 C 84.584 3.129 84.185 3.031 83.723 3.031 L 80.252 3.031 L 80.252 0.313 L 83.472 0.313 C 84.642 0.313 85.657 0.495 86.518 0.86 C 87.38 1.212 88.041 1.74 88.504 2.444 C 88.967 3.148 89.198 4.035 89.198 5.103 L 89.198 5.416 C 89.198 6.472 88.96 7.352 88.485 8.056 C 88.022 8.747 87.36 9.268 86.499 9.62 C 85.651 9.959 84.642 10.129 83.472 10.129 Z M 92.061 14.704 L 92.061 0.43 L 95.223 0.43 L 95.223 14.704 Z M 40.791 33.378 L 40.791 19.105 L 45.148 19.105 L 48.368 27.121 L 48.734 27.121 L 51.915 19.105 L 56.35 19.105 L 56.35 33.378 L 53.226 33.378 L 53.226 21.197 L 53.67 21.236 L 49.949 30.485 L 46.941 30.485 L 43.201 21.236 L 43.683 21.197 L 43.683 33.378 Z M 58.176 33.378 L 62.822 19.105 L 67.931 19.105 L 72.751 33.378 L 69.474 33.378 L 65.579 21.314 L 66.582 21.725 L 64.095 21.725 L 65.136 21.314 L 61.338 33.378 Z M 61.704 29.839 L 62.668 27.18 L 68.182 27.18 L 69.165 29.839 Z M 74.587 33.378 L 74.587 18.987 L 77.749 18.987 L 77.749 33.378 Z M 83.128 33.378 L 79.002 27.239 L 82.473 27.239 L 86.792 33.378 Z M 76.901 28.803 L 76.901 26.281 L 80.371 26.281 C 80.834 26.281 81.232 26.189 81.567 26.007 C 81.914 25.811 82.177 25.544 82.357 25.205 C 82.55 24.853 82.646 24.449 82.646 23.993 C 82.646 23.537 82.55 23.139 82.357 22.8 C 82.184 22.455 81.907 22.174 81.567 21.998 C 81.232 21.803 80.834 21.705 80.371 21.705 L 76.901 21.705 L 76.901 18.987 L 80.121 18.987 C 81.29 18.987 82.306 19.17 83.167 19.535 C 84.028 19.887 84.69 20.415 85.153 21.119 C 85.616 21.823 85.847 22.709 85.847 23.778 L 85.847 24.091 C 85.847 25.147 85.609 26.026 85.134 26.73 C 84.671 27.421 84.009 27.943 83.148 28.295 C 82.299 28.634 81.29 28.803 80.121 28.803 Z M 97.925 33.378 L 93.066 26.711 L 91.119 26.711 L 97.019 19.105 L 100.643 19.105 L 95.341 25.929 L 95.303 24.54 L 101.742 33.378 Z M 88.671 33.378 L 88.671 19.105 L 91.833 19.105 L 91.833 33.378 Z M 103.168 33.378 L 103.168 19.105 L 106.253 19.105 L 106.253 33.378 Z M 105.868 33.378 L 105.868 30.719 L 112.018 30.719 L 112.018 33.378 Z M 105.868 27.454 L 105.868 24.795 L 111.574 24.795 L 111.574 27.454 Z M 105.868 21.764 L 105.868 19.105 L 111.883 19.105 L 111.883 21.764 Z M 117.411 33.378 L 117.411 21.51 L 120.573 21.51 L 120.573 33.378 Z M 113.459 21.901 L 113.459 19.105 L 124.545 19.105 L 124.545 21.901 Z M 126.573 33.378 L 126.573 19.105 L 129.735 19.105 L 129.735 33.378 Z M 132.936 33.378 L 132.936 19.105 L 138.122 19.105 L 143.424 30.778 L 144.079 30.778 L 143.694 31.13 L 143.694 19.105 L 146.663 19.105 L 146.663 33.378 L 141.438 33.378 L 136.136 21.705 L 135.48 21.705 L 135.866 21.353 L 135.866 33.378 Z M 156.495 33.75 C 155.236 33.75 154.137 33.542 153.198 33.124 C 152.26 32.694 151.482 32.12 150.865 31.404 C 150.262 30.687 149.812 29.891 149.516 29.018 C 149.22 28.145 149.072 27.271 149.072 26.398 L 149.072 25.968 C 149.072 25.068 149.22 24.188 149.516 23.328 C 149.812 22.468 150.255 21.686 150.846 20.982 C 151.45 20.278 152.196 19.717 153.083 19.3 C 153.983 18.883 155.017 18.674 156.187 18.674 C 157.459 18.674 158.584 18.916 159.561 19.398 C 160.538 19.867 161.322 20.525 161.913 21.373 C 162.504 22.207 162.845 23.178 162.935 24.286 L 159.773 24.286 C 159.696 23.765 159.49 23.309 159.156 22.918 C 158.835 22.526 158.417 22.22 157.903 21.998 C 157.401 21.777 156.83 21.666 156.187 21.666 C 155.57 21.666 155.017 21.777 154.529 21.998 C 154.056 22.218 153.635 22.538 153.295 22.937 C 152.961 23.341 152.704 23.824 152.524 24.384 C 152.357 24.931 152.273 25.538 152.273 26.202 C 152.273 26.893 152.363 27.525 152.543 28.099 C 152.736 28.66 153.012 29.148 153.372 29.566 C 153.732 29.97 154.175 30.282 154.702 30.504 C 155.242 30.726 155.84 30.837 156.495 30.837 C 157.369 30.837 158.128 30.654 158.77 30.289 C 159.413 29.924 159.876 29.442 160.158 28.842 L 159.773 31.032 L 159.773 27.63 L 162.684 27.63 L 162.684 30.68 C 162.08 31.671 161.245 32.433 160.178 32.968 C 159.124 33.489 157.896 33.75 156.495 33.75 Z M 156.09 28.256 L 156.09 25.948 L 163.841 25.948 L 163.841 28.256 Z M 173.204 17.78 L 173.204 15.113 L 173.914 15.113 L 173.914 17.78 Z M 172.315 15.201 L 172.315 14.572 L 174.807 14.572 L 174.807 15.201 Z M 175.254 17.78 L 175.254 14.572 L 176.233 14.572 L 176.956 16.374 L 177.039 16.374 L 177.754 14.572 L 178.75 14.572 L 178.75 17.78 L 178.048 17.78 L 178.048 15.042 L 178.148 15.051 L 177.312 17.13 L 176.636 17.13 L 175.795 15.051 L 175.903 15.042 L 175.903 17.78 Z" fill="rgb(110, 98, 158)"></path></g></svg>