<svg xmlns="http://www.w3.org/2000/svg" width="221" height="90" fill="none"><path d="M 26 27 L 37.709 27 L 37.709 29.342 L 33.318 29.342 L 33.318 41.05 L 30.391 41.05 L 30.391 29.342 L 26 29.342 Z M 44.295 27.017 L 47.517 27 L 50.407 33.659 C 51.996 37.322 53.36 40.483 53.437 40.685 C 53.54 40.95 53.138 41.05 51.976 41.05 L 50.374 41.05 L 49.157 38.123 L 42.508 38.123 L 41.89 39.587 L 41.272 41.05 L 39.752 41.05 C 38.425 41.05 38.256 40.985 38.425 40.538 C 38.532 40.257 39.896 37.099 41.457 33.521 Z M 57.028 27 L 59.955 27 L 59.955 38.416 L 65.81 38.416 L 65.81 41.05 L 57.028 41.05 Z M 69.615 27 L 80.153 27 L 80.153 29.342 L 72.835 29.342 L 72.835 32.562 L 79.567 32.562 L 79.567 35.196 L 72.835 35.196 L 72.835 38.416 L 80.446 38.416 L 80.446 41.05 L 69.615 41.05 Z M 84.836 27 L 86.373 27.011 L 87.91 27.021 L 94.643 36.096 L 94.723 31.548 L 94.804 27 L 97.656 27 L 97.613 33.952 L 97.57 40.904 L 96.194 40.993 L 94.819 41.081 L 91.364 36.479 L 87.91 31.876 L 87.829 36.463 L 87.749 41.05 L 84.836 41.05 Z M 101.229 27 L 112.937 27 L 112.937 29.342 L 108.547 29.342 L 108.547 41.05 L 105.619 41.05 L 105.619 29.342 L 101.229 29.342 Z M 45.93 30.728 C 45.748 30.533 43.847 34.69 43.853 35.269 C 43.855 35.39 44.778 35.489 45.905 35.489 C 47.032 35.489 47.954 35.437 47.954 35.373 C 47.954 35.309 47.546 34.289 47.046 33.105 C 46.547 31.921 46.045 30.851 45.93 30.728 Z M 126.402 48.525 C 128.084 48.681 131.086 49.937 131.086 50.485 C 131.086 50.659 130.751 51.241 130.34 51.779 L 129.595 52.756 L 128.746 52.129 C 127.084 50.9 124.031 50.968 122.643 52.265 C 120.688 54.089 120.527 56.843 122.264 58.713 C 123.753 60.316 125.127 60.68 127.354 60.062 L 128.452 59.757 L 128.452 55.686 L 131.107 55.686 L 130.94 61.394 L 129.476 62.095 C 127.496 63.043 124.518 63.258 122.746 62.582 C 122.024 62.306 120.846 61.51 120.128 60.812 C 117.278 58.043 117.291 53.266 120.155 50.696 C 121.597 49.402 122.009 49.158 123.419 48.762 C 124.206 48.541 125.48 48.44 126.402 48.525 Z M 177.26 48.762 C 178.837 49.171 180.849 50.35 180.837 50.857 C 180.833 51.018 180.491 51.535 180.076 52.006 C 179.456 52.712 179.238 52.803 178.842 52.522 C 177.554 51.61 176.574 51.247 175.396 51.247 C 170.997 51.247 169.308 56.703 172.867 59.417 C 174.231 60.458 176.212 60.448 178.014 59.392 L 179.299 58.639 L 180.074 59.447 C 180.499 59.892 180.848 60.366 180.848 60.5 C 180.848 61.352 177.282 62.998 175.433 63 C 173.248 63.002 172.002 62.547 170.452 61.183 C 168.68 59.623 167.983 58.112 167.975 55.812 C 167.963 52.515 170.109 49.603 173.153 48.785 C 174.98 48.294 175.446 48.291 177.26 48.762 Z M 30.391 48.661 L 33.318 48.661 L 33.318 62.712 L 30.391 62.712 Z M 38.587 48.661 L 41.439 48.661 L 48.247 57.822 L 48.247 48.661 L 51.174 48.661 L 51.174 62.712 L 48.311 62.712 L 44.986 58.265 L 41.66 53.819 L 41.58 58.265 L 41.499 62.712 L 38.587 62.712 Z M 54.653 48.661 L 66.395 48.661 L 66.395 51.296 L 62.297 51.296 L 62.297 62.712 L 59.077 62.712 L 59.077 51.321 L 54.833 51.149 L 54.743 49.905 Z M 70.201 48.661 L 80.738 48.661 L 80.738 51.296 L 73.128 51.296 L 73.128 54.516 L 79.86 54.516 L 79.86 56.857 L 73.128 56.857 L 73.128 60.37 L 81.031 60.37 L 81.031 62.712 L 70.201 62.712 Z M 85.422 48.661 L 88.349 48.661 L 88.349 60.077 L 94.203 60.077 L 94.203 62.712 L 85.422 62.712 Z M 98.009 48.661 L 101.229 48.661 L 101.229 60.077 L 107.083 60.077 L 107.083 62.712 L 98.009 62.712 Z M 110.888 48.661 L 113.816 48.661 L 113.816 62.712 L 110.888 62.712 Z M 136.062 48.661 L 146.6 48.661 L 146.6 51.296 L 138.989 51.296 L 138.989 54.516 L 145.722 54.516 L 145.722 56.857 L 138.989 56.857 L 138.989 60.37 L 146.893 60.37 L 146.893 62.712 L 136.062 62.712 Z M 151.284 48.661 L 152.674 48.672 L 154.064 48.683 L 160.797 57.757 L 160.877 53.209 L 160.958 48.661 L 163.87 48.661 L 163.87 62.712 L 160.947 62.712 L 154.357 53.919 L 154.196 62.712 L 151.284 62.712 Z M 184.946 48.661 L 195.484 48.661 L 195.484 51.296 L 187.873 51.296 L 187.873 54.516 L 194.606 54.516 L 194.606 56.857 L 187.873 56.857 L 187.873 60.37 L 195.777 60.37 L 195.777 62.712 L 184.946 62.712 Z" fill="rgb(110, 98, 158)"></path></svg>