<svg xmlns="http://www.w3.org/2000/svg" width="109" height="90" fill="none"><path d="M 64.22 65.441 C 65.379 65.376 69.442 65.188 70.322 65.463 C 71.202 65.738 71.091 67.171 70.362 67.383 C 69.633 67.595 68.095 67.246 67.195 67.25 C 61.487 67.281 54.086 68.765 48.744 70.711 C 47.656 71.118 44.902 73.001 44.541 71.3 C 44.292 70.131 46.112 69.604 47.035 69.203 C 51.854 67.106 58.945 65.736 64.22 65.441 Z M 72.545 45.602 C 73.239 45.272 74.772 45.692 74.454 46.677 L 71.112 53.747 C 72.267 52.497 74.929 50.111 76.316 52.322 C 77.866 54.8 75.39 59.814 73.345 61.587 C 71.187 63.458 68.123 63.686 66.725 60.889 C 65.532 63.03 62.206 64.461 61.782 61.041 C 60.579 63.11 57.378 65.714 56.2 62.131 C 55.057 63.389 53.315 65.945 51.28 64.746 C 50.252 64.136 50.432 62.963 50.459 61.974 C 48.41 64.588 46.112 67.307 42.88 68.571 C 37.317 70.746 33.623 67.713 34.294 62.074 C 34.852 57.391 39.516 50.543 44.112 48.81 C 47.513 47.53 50.073 48.737 49.534 52.538 C 49.287 54.275 47.38 58.006 45.301 55.842 C 46.018 54.824 46.801 53.806 46.983 52.538 C 47.342 49.996 46.498 49.706 44.486 51.038 C 41.823 52.803 38.825 57.717 38.01 60.732 C 36.002 68.191 41.752 67.995 46.297 64.298 C 50.555 60.848 51.681 57.501 54.178 53.023 C 54.579 52.304 57.013 48.153 57.432 47.962 C 58.249 47.591 59.848 48.055 59.434 49.134 C 57.792 52.391 55.494 55.445 54.019 58.768 C 53.611 59.681 51.708 64.284 54.37 62.216 C 56.371 60.661 57.197 57.204 58.486 55.042 C 58.68 54.671 58.899 54.314 59.141 53.973 C 59.626 53.485 61.368 53.721 61.379 54.443 C 60.806 56.011 59.73 57.634 59.265 59.217 C 58.22 62.759 59.964 61.493 61.191 59.541 C 62.089 58.116 63.462 54.248 64.412 53.361 C 65.162 52.66 66.737 53.198 66.622 53.943 C 65.975 55.358 65.118 56.942 64.659 58.421 C 64.419 59.193 63.665 61.805 65.214 60.516 C 66.948 59.077 68.478 53.898 69.489 51.632 C 69.821 50.887 72.234 45.751 72.545 45.602 Z M 72.976 65.692 C 73.273 65.647 73.508 65.727 73.681 65.878 C 73.853 66.027 73.96 66.245 74.006 66.474 C 74.053 66.702 74.04 66.944 73.968 67.146 C 73.896 67.348 73.763 67.513 73.569 67.578 C 73.162 67.714 72.832 67.681 72.587 67.545 C 72.343 67.41 72.189 67.176 72.131 66.919 C 72.073 66.663 72.11 66.382 72.249 66.152 C 72.388 65.921 72.63 65.743 72.976 65.692 Z M 73.812 53.422 C 73.694 53.414 73.576 53.431 73.464 53.471 C 72.326 53.755 70.155 57.257 69.704 58.356 C 68.223 61.907 70.655 61.567 72.46 59.332 C 73.162 58.46 75.447 54.275 74.149 53.517 C 74.045 53.462 73.93 53.43 73.812 53.422 Z M 39.176 30.957 C 39.915 30.841 41.701 30.393 42.23 30.837 C 42.721 31.244 42.752 32.555 42.134 32.907 C 41.298 33.388 38.165 33.776 36.972 34.092 C 36.483 34.22 35.092 34.514 34.81 34.782 L 31.88 41.321 C 33.092 41.046 35.397 40.13 36.569 40.236 C 37.74 40.342 37.797 41.93 36.826 42.335 L 30.767 44.198 L 27.562 53.189 C 27.241 53.737 26.196 53.159 25.831 52.884 C 24.836 52.135 25.018 51.245 25.298 50.209 C 25.477 49.546 27.282 45.398 27.097 45.205 L 25.181 45.44 C 23.447 43.184 26.915 43.131 28.333 42.369 L 31.243 35.733 C 29.85 35.936 24.79 37.317 24.558 38.787 L 25.008 39.819 C 23.886 40.924 22.749 39.338 22.657 38.241 C 22.405 35.139 28.87 33.355 31.237 32.695 C 33.848 31.974 36.498 31.393 39.176 30.957 Z M 82.513 47.058 C 82.987 47.031 84.129 45.254 85.143 45.893 C 85.997 46.881 84.056 48.061 84.027 48.54 C 83.979 49.366 85.13 51.044 84.731 51.887 C 84.662 52.033 84.083 52.65 83.851 52.438 L 82.592 50.02 C 82.419 49.896 81.626 50.645 81.547 50.799 C 81.24 51.453 82.564 52.86 80.837 53.279 C 80.244 51.54 79.262 50.861 77.643 50.093 C 78.2 48.558 79.339 49.725 80.08 49.531 C 80.418 49.293 80.724 49.012 80.991 48.697 C 81.102 48.438 80.885 48.493 80.782 48.432 C 80.055 48.014 79.22 47.683 78.505 47.227 C 78.992 45.203 81.343 47.123 82.513 47.058 Z M 43.296 33.105 C 43.893 32.219 45.679 29.408 46.981 30.961 C 47.294 31.338 47.19 31.706 47.066 32.116 C 46.387 34.267 43.571 37.907 42.376 40.13 C 41.672 41.445 40.659 43.361 40.509 44.833 C 40.212 47.703 42.786 44.132 43.331 43.389 C 44.726 41.494 45.629 39.131 46.897 37.388 C 47.591 36.435 48.623 36.452 49.262 37.355 C 48.775 39.187 46.651 41.873 46.862 43.736 C 46.979 44.766 47.798 43.8 48.228 43.342 C 50.537 40.889 52.227 34.029 56.513 34.182 C 57.171 34.202 57.794 34.729 58.145 34.78 C 58.354 34.811 58.782 34.349 59.348 34.373 C 59.948 34.406 60.783 34.67 60.478 35.391 C 58.389 39.564 56.284 50.187 52.373 52.825 C 51.571 53.365 50.361 53.159 50.561 52.163 C 50.601 51.96 52.494 49.391 52.832 48.768 C 53.683 47.122 54.409 45.414 55.003 43.658 C 53.837 44.7 53.194 46.17 51.293 45.796 C 50.144 45.57 50.215 44.66 49.584 43.963 C 48.479 46.16 45.086 48.228 44.079 44.739 C 42.966 46.229 40.945 49.358 38.679 48.135 C 37.043 47.249 37.962 44.762 38.376 43.377 C 39.372 40.033 41.332 36.016 43.296 33.105 Z M 78.058 23.311 C 81.202 22.718 78.361 25.98 78.288 27.343 C 78.498 27.547 83.093 26.434 84.092 27.05 C 84.591 27.356 84.616 28.105 84.301 28.551 L 77.325 29.599 C 76.281 32.317 74.891 35.185 74.131 37.98 C 74.05 38.278 73.429 40.185 74.131 40.016 C 75.873 38.772 77.118 36.796 78.24 35.006 C 78.867 34.011 79.999 31.413 80.736 30.757 C 81.336 30.226 82.796 30.418 82.901 31.165 C 82.968 31.653 82.431 32.777 82.435 33.469 C 82.435 35.039 83.356 36.726 83.212 38.455 C 83.003 41.073 80.223 43.674 77.553 42.107 L 76.274 40.702 C 75.021 41.773 73.725 43.394 71.904 42.331 C 71.114 41.869 71.068 41.026 70.859 40.248 C 69.831 41.586 68.327 43.892 66.305 43.284 C 63.976 42.583 66.186 38.17 66.677 36.796 C 66.825 36.378 67.084 35.883 67.032 35.433 C 64.479 37.779 63.011 40.965 61.442 43.966 C 60.915 44.576 59.428 43.966 59.298 43.269 C 59.137 42.414 60.658 38.017 61.044 36.901 C 62.262 33.392 64.201 27.964 66.017 24.815 C 66.802 23.457 67.797 23.03 68.839 24.455 L 63.445 37.608 C 64.761 36.126 66.982 32.221 69.282 32.461 C 70.349 32.571 70.249 33.726 70.118 34.532 C 69.951 35.55 67.377 40.484 67.924 41.014 C 68.551 41.128 68.822 40.698 69.194 40.309 C 71.726 37.663 72.896 33.626 74.285 30.356 C 74.381 30.039 74.125 30.133 73.907 30.143 C 73.182 30.181 70.629 30.833 70.272 30.739 C 69.664 30.584 69.307 29.53 69.692 28.988 C 70.193 28.278 74.413 28.186 75.416 27.726 C 76.09 26.843 76.953 23.518 78.058 23.311 Z M 57.397 35.886 C 55.45 35.59 53.948 38.38 53.271 39.869 C 52.972 40.527 51.6 43.585 53.162 43.345 C 53.774 43.249 55.174 41.127 55.548 40.533 C 55.943 39.902 57.936 36.409 57.397 35.886 Z M 80.041 34.798 C 79.659 34.715 79.784 34.866 79.686 35.002 C 78.85 36.191 78.432 37.648 77.559 38.832 C 77.584 39.719 77.72 41.173 78.963 40.983 C 81.087 40.664 80.22 36.225 80.041 34.798 Z M 49.703 32.5 C 52.458 32.111 50.677 36.075 48.813 35.627 C 47.089 35.214 48.324 32.694 49.703 32.5 Z M 37.233 22.541 C 39.293 19.539 46.542 19.058 49.91 19.337 C 50.908 21.8 47.478 20.467 46.801 21.297 L 43.523 29.133 C 43.166 29.404 42.232 28.979 42.113 28.638 C 41.612 27.222 44.764 21.703 44.478 21.444 C 42.502 21.595 38.867 22.161 39.224 24.775 C 39.312 25.422 40.012 26.232 38.33 25.644 C 36.972 25.168 36.412 23.736 37.233 22.541 Z M 51.518 18.437 C 51.997 17.875 52.799 17.899 53.413 18.258 C 53.585 18.376 53.574 18.506 53.545 18.688 C 53.448 19.316 51.579 22.024 51.149 22.893 C 50.993 23.163 50.894 23.463 50.858 23.773 C 51.529 23.413 52.245 22.222 52.937 21.994 C 56.43 20.839 53.407 25.982 53.257 27.276 C 53.163 28.078 54.374 26.967 54.52 26.798 C 55.454 25.717 55.412 24.711 55.933 23.512 C 56.666 21.815 59.641 18.891 61.6 20.377 C 63.723 21.989 59.783 26.484 57.395 25.635 C 57.341 26.173 57.339 26.971 57.988 27.156 C 59.565 27.606 61.438 25.19 62.334 24.155 L 62.818 24.084 C 62.739 26.014 60.044 28.714 58.093 28.884 C 57.174 28.964 55.947 28.412 55.638 27.5 L 55.325 27.5 C 54.28 29.656 50.837 30.08 51.374 26.839 C 51.514 25.988 52.235 25.126 52.053 24.239 C 51.303 24.916 50.661 25.705 50.152 26.58 C 49.82 27.134 49.07 29.166 48.543 29.217 C 48.205 29.249 47.566 28.872 47.43 28.585 C 47.069 27.816 48.19 25.124 48.55 24.243 C 49.091 22.934 50.685 19.419 51.518 18.437 Z M 60.426 21.599 C 59.407 21.072 57.393 24.244 57.71 24.548 C 59.219 24.489 60.66 23.107 60.426 21.599 Z" fill="rgb(110, 99, 157)"></path></svg>