<svg xmlns="http://www.w3.org/2000/svg" width="109" height="90" fill="none"><path d="M 49.736 17.037 L 51.571 17 L 51.571 19.603 C 51.571 21.739 51.687 22.16 52.219 21.954 C 53.289 21.539 54.965 22.179 55.534 23.219 C 55.827 23.756 56.173 25.847 56.302 27.867 C 56.463 30.392 56.718 31.6 57.118 31.734 C 57.577 31.887 57.6 31.739 57.226 31.033 C 56.082 28.875 56.988 24.896 59.056 22.996 C 60.869 21.331 63.643 21.3 64.913 22.931 C 66.05 24.39 66.567 26.999 65.813 27.47 C 65.51 27.659 64.027 27.947 62.518 28.111 C 59.619 28.424 59.531 28.507 60.195 30.272 C 60.519 31.132 60.918 31.39 61.922 31.39 C 62.782 31.39 63.229 31.172 63.229 30.751 C 63.229 29.931 64.691 29.135 65.572 29.476 C 67.654 30.283 64.307 34.453 61.595 34.429 C 60.712 34.422 59.618 34.13 59.162 33.782 C 58.575 33.333 58.176 33.282 57.791 33.605 C 57.492 33.855 56.407 33.999 55.381 33.924 L 53.514 33.789 L 53.388 29.65 C 53.319 27.374 53.068 25.315 52.831 25.075 C 52.058 24.295 51.584 25.81 51.577 29.079 C 51.572 31.552 51.723 32.305 52.285 32.623 C 52.715 32.866 52.892 33.309 52.73 33.735 C 52.531 34.258 51.895 34.443 50.289 34.443 C 48.173 34.443 48.117 34.41 48.117 33.16 C 48.117 32.455 48.311 31.757 48.548 31.608 C 48.787 31.46 48.98 29.496 48.98 27.222 C 48.98 24.005 48.849 23.105 48.382 23.105 C 48.053 23.105 47.466 22.614 47.077 22.015 C 46.637 21.338 45.965 20.925 45.3 20.925 L 44.231 20.925 L 44.231 26.132 C 44.231 29.133 44.414 31.453 44.662 31.608 C 45.336 32.029 45.169 33.448 44.411 33.742 C 44.035 33.888 43.058 34.007 42.239 34.007 C 40.645 34.007 39.846 33.028 40.719 32.146 C 41.03 31.832 41.208 29.702 41.208 26.288 C 41.208 20.395 41.153 20.297 38.715 21.798 C 35.935 23.511 35.374 22.74 36.976 19.41 C 37.58 18.155 38.209 17.436 38.703 17.436 C 39.131 17.436 39.481 17.644 39.481 17.899 C 39.481 18.389 44.777 18.034 46.821 17.406 C 47.415 17.224 48.726 17.058 49.736 17.037 Z M 61.502 24.918 C 60.908 24.918 60.665 25.017 60.962 25.138 C 61.259 25.259 61.745 25.259 62.041 25.138 C 62.338 25.017 62.095 24.918 61.502 24.918 Z M 29.707 34.529 C 30.627 34.662 30.779 35.094 31.553 39.785 C 31.879 41.762 31.154 41.964 29.613 40.323 C 28.802 39.458 28.172 39.24 26.494 39.24 C 24.602 39.24 24.325 39.369 23.733 40.526 C 22.888 42.177 22.884 46.326 23.726 47.97 C 24.396 49.279 25.563 50.142 26.664 50.142 C 27.435 50.142 29.982 47.57 29.982 46.792 C 29.982 46.48 30.371 45.979 30.846 45.68 C 31.32 45.38 31.709 44.78 31.709 44.346 C 31.709 42.232 34.657 38.789 37.22 37.908 C 38.415 37.498 38.927 37.569 40.579 38.376 C 42.589 39.359 43.793 40.987 44.281 43.382 C 44.493 44.418 44.56 44.221 44.605 42.437 C 44.675 39.671 44.375 38.804 43.346 38.804 C 42.911 38.804 42.416 38.578 42.247 38.301 C 41.757 37.5 43.374 36.623 45.341 36.623 C 47.333 36.623 48.015 37.281 50.503 41.602 C 51.59 43.49 51.792 43.652 52.194 42.961 C 52.445 42.529 53.391 41.211 54.296 40.033 L 55.941 37.89 L 58.398 38.02 C 61.096 38.162 61.714 38.999 59.824 39.951 C 58.219 40.759 58.061 41.324 58.054 46.279 C 58.049 50.007 58.175 50.97 58.695 51.172 C 59.536 51.497 59.533 53.148 58.691 53.474 C 58.334 53.613 57.585 53.424 57.027 53.056 C 56.47 52.687 55.306 52.251 54.44 52.087 C 53.289 51.869 52.866 51.568 52.866 50.966 C 52.866 50.437 53.17 50.142 53.715 50.142 C 54.807 50.142 55.545 48.733 55.375 46.972 C 55.242 45.602 55.221 45.618 53.355 48.519 C 52.318 50.131 51.215 51.45 50.905 51.45 C 50.595 51.45 49.554 50.027 48.591 48.288 L 46.842 45.127 L 46.832 47.547 C 46.821 50.065 47.314 51.014 48.635 51.014 C 49.956 51.014 49.604 52.702 48.225 52.983 C 47.571 53.116 46.44 53.414 45.711 53.646 C 44.982 53.877 44.156 54.066 43.876 54.066 C 43.167 54.066 43.264 52.278 44.029 51.258 C 44.43 50.72 44.641 49.525 44.604 47.987 C 44.571 46.654 44.455 46.042 44.347 46.627 C 43.845 49.324 40.651 51.886 37.788 51.886 C 35.485 51.886 32.627 50.029 32.587 48.506 C 32.558 47.426 31.811 47.991 31.555 49.287 C 31.41 50.017 30.663 51.194 29.893 51.904 C 28.055 53.599 25.468 53.672 22.816 52.102 C 19.804 50.32 18.98 48.768 19 44.914 C 19.018 41.486 19.892 39 21.64 37.403 C 23.006 36.156 25.644 35.241 27.005 35.543 C 27.938 35.75 28.324 35.64 28.526 35.109 C 28.685 34.691 29.173 34.451 29.707 34.529 Z M 87.495 35.267 C 89.949 36.109 90.663 37.234 89.356 38.2 C 88.951 38.498 87.862 40.054 86.935 41.657 C 85.699 43.791 85.252 45.052 85.259 46.374 C 85.274 49.007 85.927 51.435 86.792 52.074 C 88.084 53.028 87.215 53.905 84.432 54.458 C 82.535 54.835 81.572 54.849 80.94 54.507 C 79.811 53.897 79.833 53.765 81.293 52.388 C 82.511 51.238 82.515 51.213 82.151 47.783 C 81.737 43.879 80.256 41.054 77.849 39.575 L 76.483 38.737 L 76.775 41.278 C 77.723 49.559 77.832 50.116 78.771 51.449 C 79.31 52.212 79.574 52.982 79.365 53.177 C 79.158 53.371 77.213 53.663 75.044 53.827 L 71.1 54.124 L 70.104 52.711 C 69.257 51.51 69.105 50.741 69.083 47.559 C 69.051 42.807 69.788 41.42 72.345 41.42 C 74.212 41.42 74.203 41.438 73.554 39.079 C 73.006 37.084 73.22 36.81 75.642 36.412 C 77.193 36.157 77.477 36.224 77.477 36.846 C 77.477 37.503 77.642 37.483 79.013 36.667 C 80.845 35.575 81.363 35.522 81.363 36.428 C 81.363 37.181 83.159 40.539 83.564 40.545 C 84.024 40.551 85.208 37.024 84.963 36.378 C 84.832 36.033 84.833 35.466 84.966 35.116 C 85.173 34.571 85.53 34.593 87.495 35.267 Z M 38.199 40.984 C 37.294 40.984 35.595 43.12 35.527 44.344 C 35.352 47.453 35.963 48.429 38.121 48.491 C 41.267 48.581 42.394 44.731 39.946 42.259 C 39.252 41.558 38.466 40.984 38.199 40.984 Z M 68.124 44.795 C 68.554 47.108 68.19 47.451 64.972 47.772 C 62.259 48.042 62.057 48.133 62.265 48.994 C 62.611 50.425 63.234 51.014 64.401 51.014 C 65.105 51.014 65.545 50.717 65.694 50.142 C 65.854 49.524 66.283 49.27 67.165 49.27 C 68.913 49.27 68.817 50.689 66.942 52.584 C 65.759 53.779 65.137 54.066 63.737 54.066 C 61.521 54.066 59.374 52.107 59.282 49.999 C 59.092 45.631 60.013 42.94 62.033 41.956 C 64.866 40.577 67.576 41.84 68.124 44.795 Z M 64.118 44.037 C 63.894 44.037 63.591 44.233 63.444 44.473 C 63.298 44.713 63.481 44.909 63.851 44.909 C 64.221 44.909 64.524 44.713 64.524 44.473 C 64.524 44.233 64.341 44.037 64.118 44.037 Z M 73.433 44.859 L 72.803 43.952 L 72.333 44.838 C 71.139 47.093 72.22 50.914 73.872 50.274 C 74.421 50.061 74.509 49.581 74.31 47.887 C 74.174 46.721 73.778 45.358 73.433 44.859 Z M 31.595 54.763 L 31.381 55.897 L 38.669 55.744 C 45.761 55.597 45.958 55.617 45.958 56.48 C 45.958 57.018 44.471 58.847 42.18 61.128 C 40.102 63.196 37.527 65.806 36.459 66.929 L 34.516 68.97 L 38.402 68.669 C 43.523 68.272 43.902 67.916 43.967 63.432 L 44.015 60.078 L 46.174 58.179 C 48.875 55.802 50.118 55.489 52.336 56.632 C 53.317 57.138 54.199 57.346 54.422 57.125 C 54.832 56.719 56.326 56.503 57.95 56.615 C 58.625 56.661 59.57 57.574 60.972 59.532 L 63.013 62.381 L 63.15 60.792 C 63.254 59.581 63.074 59.054 62.394 58.573 C 61.548 57.974 61.133 56.266 61.825 56.23 C 62.003 56.221 63.273 56.126 64.648 56.018 C 66.588 55.867 67.201 55.968 67.393 56.471 C 67.747 57.403 74.12 57.398 74.886 56.465 C 75.182 56.105 75.574 55.811 75.758 55.811 C 76.275 55.811 78.401 60.157 78.113 60.626 C 77.733 61.247 76.791 61.132 76.182 60.389 C 75.854 59.99 74.908 59.735 73.754 59.735 C 72.008 59.735 71.864 59.822 71.864 60.865 C 71.864 61.989 71.877 61.993 74.989 61.848 C 77.685 61.722 78.134 61.807 78.259 62.463 C 78.338 62.88 78.102 63.527 77.734 63.899 C 77.366 64.271 76.894 64.882 76.686 65.257 C 76.378 65.814 76.134 65.846 75.36 65.427 C 74.839 65.145 73.887 64.976 73.246 65.05 C 72.165 65.176 72.07 65.352 71.95 67.462 L 71.82 69.737 L 73.848 69.12 C 74.963 68.781 76.081 68.297 76.331 68.044 C 76.582 67.791 77.158 67.585 77.614 67.585 C 78.256 67.585 78.387 67.804 78.199 68.566 C 78.066 69.105 77.799 70.204 77.605 71.007 L 77.253 72.468 L 72.399 72.604 C 67.863 72.731 67.546 72.685 67.546 71.907 C 67.546 71.448 67.758 71.073 68.017 71.073 C 68.706 71.073 68.041 59.777 67.288 58.679 C 66.728 57.863 66.704 57.863 66.402 58.658 C 66.231 59.108 66.316 62.212 66.589 65.556 C 66.864 68.9 66.985 71.804 66.86 72.009 C 66.158 73.156 64.875 72.124 62.304 68.348 L 59.559 64.314 L 59.422 65.995 C 59.245 68.173 59.544 68.893 60.624 68.893 C 61.259 68.893 61.502 69.178 61.502 69.925 C 61.502 70.816 61.19 71.027 59.235 71.464 C 57.988 71.744 56.684 72.015 56.337 72.068 C 55.449 72.202 55.281 70.877 56.083 70.067 C 56.61 69.535 56.752 68.323 56.752 64.361 C 56.752 59.833 56.668 59.285 55.917 58.879 C 54.654 58.196 54.619 58.294 55.503 60.045 C 57.047 63.104 56.438 66.084 53.74 68.675 C 52.521 69.846 52.091 69.983 49.644 69.983 C 47.577 69.983 46.694 69.784 46.016 69.164 C 45.125 68.35 45.117 68.357 44.576 70.402 C 43.923 72.866 42.787 73.731 42.043 72.327 C 41.568 71.43 41.35 71.402 36.952 71.665 C 34.425 71.817 31.337 72.065 30.09 72.217 C 27.914 72.481 27.823 72.451 27.826 71.456 C 27.828 70.706 29.496 68.741 33.864 64.343 C 37.183 61.002 39.824 58.192 39.733 58.1 C 39.642 58.008 38.077 58.142 36.254 58.398 C 34.433 58.654 32.209 58.863 31.313 58.863 C 30.232 58.863 29.421 59.157 28.903 59.735 C 28.473 60.215 27.86 60.608 27.54 60.608 C 26.454 60.608 26.955 58.827 28.772 56.225 C 30.708 53.453 31.967 52.801 31.595 54.763 Z M 47.18 62.862 C 46.775 64.225 46.817 64.678 47.431 65.625 C 48.076 66.619 48.415 66.742 50.189 66.626 C 51.904 66.514 52.297 66.314 52.774 65.304 C 53.396 63.988 52.886 61.079 51.891 60.276 C 49.949 58.706 48.114 59.713 47.18 62.862 Z" fill="rgb(110, 98, 158)"></path></svg>